<svg width="24" height="24" fill="#70CF97" viewBox="0 0 24 24"  xmlns="http://www.w3.org/2000/svg">
<path d="M12.7499 5.75V7H13.7349C14.0389 7 14.3379 7.08 14.6019 7.231L15.8919 7.967C15.9299 7.989 15.9719 8 16.0159 8H18.2499C18.4488 8 18.6396 8.07902 18.7802 8.21967C18.9209 8.36032 18.9999 8.55109 18.9999 8.75C18.9999 8.94891 18.9209 9.13968 18.7802 9.28033C18.6396 9.42098 18.4488 9.5 18.2499 9.5H17.8229L19.9339 14.192C19.9963 14.3308 20.015 14.4853 19.9875 14.635C19.96 14.7847 19.8876 14.9224 19.7799 15.03L19.2499 14.5L19.7789 15.031L19.7779 15.033L19.7759 15.035L19.7699 15.041L19.7639 15.046L19.7539 15.056L19.7089 15.096C19.4989 15.272 19.2679 15.423 19.0229 15.546C18.5559 15.78 17.8799 16 16.9999 16C16.2994 16.0083 15.6067 15.8528 14.9769 15.546C14.7316 15.4231 14.5014 15.2721 14.2909 15.096L14.2459 15.056L14.2299 15.041L14.2239 15.035L14.2199 15.031V15.03C14.1122 14.9224 14.0399 14.7847 14.0124 14.635C13.9848 14.4853 14.0035 14.3308 14.0659 14.192L16.1779 9.5H16.0159C15.7109 9.5 15.4119 9.421 15.1479 9.269L13.8579 8.533C13.8202 8.51118 13.7774 8.49979 13.7339 8.5H12.7499V18H15.2499C15.4488 18 15.6396 18.079 15.7802 18.2197C15.9209 18.3603 15.9999 18.5511 15.9999 18.75C15.9999 18.9489 15.9209 19.1397 15.7802 19.2803C15.6396 19.421 15.4488 19.5 15.2499 19.5H8.74991C8.55099 19.5 8.36023 19.421 8.21958 19.2803C8.07892 19.1397 7.99991 18.9489 7.99991 18.75C7.99991 18.5511 8.07892 18.3603 8.21958 18.2197C8.36023 18.079 8.55099 18 8.74991 18H11.2499V8.5H10.2659C10.2224 8.49979 10.1796 8.51118 10.1419 8.533L8.85291 9.27C8.58791 9.42 8.28891 9.5 7.98391 9.5H7.82191L9.93391 14.192C9.99629 14.3308 10.015 14.4853 9.98746 14.635C9.95995 14.7847 9.88757 14.9224 9.77991 15.03L9.24991 14.5L9.77891 15.031L9.77791 15.033L9.77591 15.035L9.76991 15.041L9.75391 15.056L9.70891 15.096C9.49891 15.272 9.26791 15.423 9.02291 15.546C8.55591 15.78 7.87991 16 6.99991 16C6.29942 16.0083 5.60669 15.8528 4.97691 15.546C4.73159 15.4231 4.50138 15.2721 4.29091 15.096L4.24591 15.056L4.22991 15.041L4.22391 15.035L4.21991 15.031V15.03C4.11225 14.9224 4.03986 14.7847 4.01235 14.635C3.98485 14.4853 4.00352 14.3308 4.06591 14.192L6.17791 9.5H5.74991C5.55099 9.5 5.36023 9.42098 5.21958 9.28033C5.07892 9.13968 4.99991 8.94891 4.99991 8.75C4.99991 8.55109 5.07892 8.36032 5.21958 8.21967C5.36023 8.07902 5.55099 8 5.74991 8H7.98391C8.02775 8.0002 8.07087 7.98881 8.10891 7.967L9.39691 7.23C9.66191 7.08 9.96091 7 10.2659 7H11.2499V5.75C11.2499 5.55109 11.3289 5.36032 11.4696 5.21967C11.6102 5.07902 11.801 5 11.9999 5C12.1988 5 12.3896 5.07902 12.5302 5.21967C12.6709 5.36032 12.7499 5.55109 12.7499 5.75ZM15.6949 14.227C15.9799 14.362 16.4129 14.5 16.9999 14.5C17.5869 14.5 18.0199 14.362 18.3049 14.227L16.9999 11.327L15.6949 14.227ZM5.69491 14.227C5.97991 14.362 6.41291 14.5 6.99991 14.5C7.58691 14.5 8.01991 14.362 8.30491 14.227L6.99991 11.327L5.69491 14.227Z" />
</svg>
