<svg width="36" height="35" viewBox="0 0 36 35" fill="none" xmlns="http://www.w3.org/2000/svg">
<path d="M1.11817 3.31427L1.11817 3.31486L1.11817 31.6731V31.6745H1.50185C1.50026 32.1251 1.63023 32.5664 1.87582 32.9442C2.1214 33.3221 2.47192 33.62 2.88438 33.8015L1.11817 3.31427ZM1.11817 3.31427C1.11926 2.59835 1.40442 1.91213 1.91105 1.40628C2.41766 0.900433 3.10433 0.616319 3.82025 0.61632H32.1799C32.8965 0.61632 33.5838 0.901001 34.0906 1.40774C34.5973 1.91448 34.882 2.60177 34.882 3.3184V31.6777M1.11817 3.31427L3.82164 34.3837H32.1799H32.1822C32.3628 34.3826 32.543 34.3648 32.7204 34.3306L32.728 34.3292L32.728 34.3291C32.9795 34.2754 33.2222 34.1866 33.449 34.0654C33.8822 33.8354 34.2446 33.4916 34.4971 33.071C34.7497 32.6502 34.8828 32.1685 34.882 31.6777M34.882 31.6777C34.882 31.6776 34.882 31.6775 34.882 31.6774L34.4983 31.678H34.882V31.6777Z" fill="white" stroke="#E9EAEB" stroke-width="0.767361"/>
<path d="M5.7025 33.9964H31.0737C30.1368 31.4709 28.7281 29.1467 26.9226 27.1476C26.8623 27.0802 26.795 27.0164 26.7276 26.9491C26.2537 26.5094 25.7232 26.1351 25.1501 25.8359C21.7647 24.0635 17.213 24.6519 17.213 24.6519C16.3006 24.7018 15.398 24.865 14.5259 25.1376H14.494L14.416 25.1659C12.4301 25.7557 10.6166 26.8175 9.13046 28.2607C8.89413 28.497 8.66372 28.7334 8.4392 28.9697C7.27291 30.3168 6.37604 32.1282 5.7025 33.9964Z" fill="#EFB31D"/>
<path d="M16.5608 22.0251L16.6707 25.2156C16.6707 25.2156 17.3407 26.1231 19.4251 26.2472C20.9742 26.3429 21.5095 26.0239 21.5095 26.0239L21.2366 24.418L20.9707 22.8511L17.1953 22.128L16.5608 22.0251Z" fill="#F27E64"/>
<path d="M17.1952 22.1492C17.2127 22.2724 17.2498 22.3921 17.3051 22.5037C18.1417 24.2761 20.3219 24.5952 21.2046 24.6555L20.9529 22.9042L17.1952 22.1492Z" fill="black"/>
<path d="M21.5626 14.7722C21.5626 14.7722 23.5265 19.1857 22.8459 21.6778C22.1653 24.1699 19.8965 23.8047 18.5388 23.3226C17.7688 23.0777 17.0793 22.6294 16.543 22.0252C16.1564 22.1436 15.7422 22.1364 15.36 22.0045C14.9778 21.8727 14.6473 21.623 14.416 21.2914C13.5581 20.118 14.0615 18.7603 14.7918 18.4554C15.522 18.1505 16.3764 18.6575 16.3764 18.6575L15.6957 17.3742C15.6957 17.3742 18.514 10.8089 21.5626 14.7722Z" fill="#F27E64"/>
<path d="M21.4452 20.0187C21.4834 20.0182 21.5205 20.0055 21.551 19.9826C21.5816 19.9597 21.6041 19.9276 21.6154 19.8911C21.6988 19.5978 21.6992 19.2871 21.6166 18.9936C21.534 18.7001 21.3716 18.4353 21.1474 18.2285C21.1117 18.1975 21.0651 18.1819 21.0179 18.1853C20.9707 18.1886 20.9268 18.2105 20.8957 18.2462C20.8647 18.282 20.8491 18.3286 20.8525 18.3758C20.8558 18.423 20.8777 18.4669 20.9135 18.4979C21.0878 18.6603 21.2133 18.8681 21.276 19.098C21.3386 19.3278 21.3358 19.5706 21.268 19.7989C21.2546 19.8436 21.2595 19.8917 21.2813 19.9328C21.3032 19.974 21.3405 20.0048 21.3849 20.0187C21.4048 20.023 21.4253 20.023 21.4452 20.0187Z" fill="black"/>
<path d="M16.2171 20.7632C16.2632 20.7628 16.3074 20.7451 16.3411 20.7136C16.3577 20.6971 16.3709 20.6775 16.3799 20.6559C16.3889 20.6343 16.3936 20.6111 16.3936 20.5877C16.3936 20.5643 16.3889 20.5412 16.3799 20.5196C16.3709 20.498 16.3577 20.4784 16.3411 20.4619L15.1358 19.1893C15.1025 19.1625 15.0605 19.1488 15.0178 19.1505C14.9751 19.1523 14.9345 19.1694 14.9034 19.1988C14.8723 19.2281 14.8529 19.2677 14.8487 19.3103C14.8445 19.3528 14.8558 19.3955 14.8806 19.4303L16.0894 20.71C16.1235 20.7437 16.1692 20.7627 16.2171 20.7632Z" fill="black"/>
<path d="M14.9441 20.4194H14.9724L15.802 20.2917C15.825 20.2883 15.8472 20.2803 15.8671 20.2683C15.8871 20.2562 15.9045 20.2404 15.9183 20.2216C15.9322 20.2028 15.9421 20.1815 15.9477 20.1589C15.9533 20.1362 15.9544 20.1127 15.9508 20.0897C15.943 20.0435 15.9175 20.0022 15.8799 19.9745C15.8422 19.9467 15.7952 19.9346 15.7488 19.9408L14.9193 20.0684C14.8723 20.0717 14.8285 20.0935 14.7976 20.1291C14.7666 20.1647 14.7511 20.2111 14.7544 20.2581C14.7577 20.3051 14.7795 20.3488 14.8151 20.3798C14.8507 20.4107 14.8971 20.4262 14.9441 20.4229V20.4194Z" fill="black"/>
<path d="M19.4355 19.1006H19.4604C19.5069 19.0944 19.549 19.07 19.5776 19.0328C19.6062 18.9956 19.6188 18.9486 19.6128 18.9021L19.4674 17.7606C19.4613 17.7141 19.4369 17.6719 19.3997 17.6434C19.3625 17.6148 19.3154 17.6021 19.2689 17.6082C19.246 17.6108 19.2239 17.6179 19.2038 17.6292C19.1837 17.6405 19.1661 17.6556 19.1519 17.6737C19.1377 17.6919 19.1273 17.7127 19.1212 17.7349C19.1151 17.7571 19.1135 17.7803 19.1165 17.8031L19.2725 18.9375C19.2757 18.9797 19.294 19.0193 19.3239 19.0492C19.3538 19.0791 19.3934 19.0973 19.4355 19.1006Z" fill="black"/>
<path d="M21.8992 18.8843H21.9169C21.9631 18.8764 22.0044 18.851 22.0321 18.8133C22.0599 18.7756 22.072 18.7286 22.0658 18.6822L21.8992 17.562C21.8962 17.5391 21.8886 17.517 21.8769 17.4971C21.8652 17.4772 21.8497 17.4597 21.8312 17.4459C21.8127 17.432 21.7917 17.422 21.7692 17.4164C21.7468 17.4107 21.7235 17.4096 21.7007 17.4131C21.6773 17.4162 21.6548 17.4238 21.6344 17.4357C21.614 17.4476 21.5962 17.4633 21.582 17.4822C21.5678 17.501 21.5575 17.5224 21.5517 17.5453C21.5459 17.5681 21.5447 17.5919 21.5482 17.6152L21.7148 18.7354C21.7218 18.7786 21.7445 18.8177 21.7785 18.8452C21.8125 18.8727 21.8555 18.8866 21.8992 18.8843Z" fill="black"/>
<path d="M18.6379 17.2039C18.6707 17.2039 18.7028 17.195 18.7309 17.1781C18.759 17.1613 18.782 17.1371 18.7974 17.1082C18.9853 16.7537 19.5064 16.8423 19.5064 16.8494C19.5292 16.8541 19.5527 16.8542 19.5756 16.8498C19.5984 16.8453 19.6202 16.8365 19.6396 16.8236C19.659 16.8108 19.6757 16.7942 19.6888 16.7749C19.7018 16.7556 19.7109 16.734 19.7156 16.7112C19.7208 16.6886 19.7214 16.6652 19.7174 16.6423C19.7134 16.6195 19.7049 16.5977 19.6923 16.5782C19.6798 16.5587 19.6634 16.5419 19.6443 16.5288C19.6251 16.5157 19.6036 16.5066 19.5808 16.502C19.5489 16.502 18.7832 16.3354 18.4713 16.9451C18.45 16.9866 18.4459 17.0347 18.4598 17.0792C18.4737 17.1236 18.5046 17.1608 18.5457 17.1826C18.5741 17.1975 18.6059 17.2048 18.6379 17.2039Z" fill="black"/>
<path d="M21.0307 16.6935C21.0595 16.6933 21.0877 16.6861 21.113 16.6725C21.1383 16.6589 21.16 16.6394 21.1761 16.6156C21.2021 16.5711 21.2374 16.5329 21.2796 16.5035C21.3219 16.4741 21.37 16.4543 21.4207 16.4454C21.609 16.452 21.7893 16.5234 21.9312 16.6475C21.9476 16.6641 21.9672 16.6773 21.9888 16.6863C22.0104 16.6953 22.0336 16.6999 22.057 16.6999C22.0804 16.6999 22.1036 16.6953 22.1252 16.6863C22.1468 16.6773 22.1664 16.6641 22.1828 16.6475C22.2133 16.6115 22.2284 16.565 22.2251 16.518C22.2218 16.471 22.2003 16.4271 22.1651 16.3958C21.9485 16.2041 21.6673 16.1015 21.3781 16.1086C21.2777 16.1239 21.1817 16.1607 21.0967 16.2163C21.0117 16.272 20.9396 16.3453 20.8854 16.4312C20.872 16.4502 20.8627 16.4717 20.8577 16.4943C20.8528 16.517 20.8525 16.5404 20.8568 16.5632C20.8611 16.586 20.8699 16.6078 20.8827 16.6271C20.8956 16.6464 20.9121 16.663 20.9315 16.6758C20.9619 16.6918 20.9966 16.698 21.0307 16.6935Z" fill="black"/>
<path d="M16.4047 18.6502C16.4047 18.6502 16.6138 19.6854 17.1952 19.3096C17.7766 18.9338 16.4047 17.0267 16.4047 17.0267C16.4047 17.0267 18.0177 17.5868 19.0173 16.268C20.017 14.9493 19.5562 14.1162 19.5562 14.1162L21.7966 15.2932C21.7966 15.2932 22.2645 12.6415 21.474 12.1346C20.6835 11.6277 19.347 12.1346 19.347 12.1346C19.347 12.1346 19.4285 10.9896 17.1881 11.2661C14.9477 11.5426 15.008 13.8681 15.008 13.8681C15.008 13.8681 13.5333 13.8007 13.037 15.123C12.8974 15.5155 12.8623 15.9375 12.935 16.3477C13.0077 16.7579 13.1858 17.1421 13.4517 17.4627C13.4517 17.4627 12.406 17.6966 12.8881 18.6077C13.1529 19.1298 13.5293 19.5873 13.9906 19.9477C13.9906 19.9477 14.2848 18.0299 16.4047 18.6502Z" fill="black"/>
<path d="M20.3112 26.513C20.8952 26.5133 21.476 26.4261 22.0341 26.2542C22.0574 26.2475 22.0791 26.2362 22.098 26.2211C22.1169 26.2059 22.1327 26.1872 22.1444 26.166C22.1561 26.1447 22.1634 26.1214 22.1661 26.0973C22.1688 26.0732 22.1667 26.0489 22.1599 26.0256C22.1532 26.0023 22.1419 25.9806 22.1268 25.9617C22.1116 25.9427 22.0929 25.927 22.0717 25.9153C22.0504 25.9036 22.0271 25.8962 22.003 25.8936C21.9789 25.8909 21.9546 25.893 21.9313 25.8997C19.1627 26.747 16.7982 25.0596 16.7734 25.0419C16.7353 25.0141 16.6878 25.0027 16.6412 25.01C16.5947 25.0173 16.553 25.0428 16.5252 25.0809C16.4975 25.1189 16.486 25.1665 16.4933 25.213C16.5006 25.2595 16.5261 25.3013 16.5642 25.329C17.6724 26.0778 18.974 26.4891 20.3112 26.513Z" fill="#507849"/>
<path d="M5.6457 33.9964H16.2451L14.5364 25.134H14.5045C12.55 25.8581 10.7355 26.9147 9.14102 28.2571C8.3824 28.8881 6.10655 32.7876 5.6457 33.9964Z" fill="#EFB31D"/>
<path d="M20.7861 21.3729C20.8101 21.3734 20.834 21.3691 20.8564 21.3602C20.8787 21.3513 20.899 21.3381 20.9162 21.3212C20.9334 21.3044 20.947 21.2843 20.9563 21.2621C20.9656 21.24 20.9704 21.2162 20.9704 21.1921C20.971 21.1686 20.9666 21.1451 20.9576 21.1234C20.9486 21.1016 20.9352 21.0819 20.9182 21.0655C20.9012 21.0492 20.881 21.0366 20.8589 21.0285C20.8367 21.0204 20.8132 21.0169 20.7896 21.0184C20.5775 21.0099 20.3695 20.9565 20.1795 20.8618C19.9895 20.7671 19.8217 20.6332 19.6871 20.469C19.6535 20.4448 19.6125 20.4332 19.5713 20.4361C19.53 20.439 19.491 20.4563 19.4611 20.4849C19.4313 20.5135 19.4123 20.5517 19.4076 20.5928C19.4029 20.6339 19.4128 20.6754 19.4355 20.71C19.6023 20.9081 19.8086 21.0693 20.0411 21.1834C20.2736 21.2976 20.5273 21.3621 20.7861 21.3729Z" fill="black"/>
</svg>
