<?xml version="1.0" encoding="UTF-8"?>
<svg version="1.1" xmlns="http://www.w3.org/2000/svg" width="500" height="500">
<path d="M0 0 C3.72390287 2.36975637 7.09634199 4.64962537 10 8 C10 8.66 10 9.32 10 10 C10.66 10 11.32 10 12 10 C12 10.66 12 11.32 12 12 C12.66 12 13.32 12 14 12 C14 12.66 14 13.32 14 14 C14.66 14 15.32 14 16 14 C16 14.66 16 15.32 16 16 C16.66 16 17.32 16 18 16 C18 16.66 18 17.32 18 18 C18.66 18 19.32 18 20 18 C20 18.66 20 19.32 20 20 C27.92 20.33 35.84 20.66 44 21 C44.99 22.98 44.99 22.98 46 25 C46.66 25 47.32 25 48 25 C48.65162109 25.91652344 48.65162109 25.91652344 49.31640625 26.8515625 C51.3160885 29.4033612 52.97530047 30.11884922 55.9375 31.375 C60.44883321 33.51229343 62.74917557 35.40048922 65 40 C65.92039752 42.97075763 66.10062582 45.60126765 66.0703125 48.703125 C65.56349262 59.87383285 65.56349262 59.87383285 69.875 69.625 C71.22388298 70.78118541 72.60278577 71.90271134 74 73 C75.41706417 74.41106813 76.83326326 75.82320764 78.22900391 77.25537109 C80.45418515 79.53567903 82.73156849 81.76283324 85 84 C86.3344505 85.33221523 87.66822703 86.66510813 89 88 C87.7260411 90.03833424 86.38938077 92.03852126 85 94 C84.34 94 83.68 94 83 94 C83 94.66 83 95.32 83 96 C82.34 96 81.68 96 81 96 C81 96.66 81 97.32 81 98 C80.34 98 79.68 98 79 98 C79 98.66 79 99.32 79 100 C78.34 100 77.68 100 77 100 C77 100.66 77 101.32 77 102 C76.34 102 75.68 102 75 102 C75 102.66 75 103.32 75 104 C74.34 104 73.68 104 73 104 C73.33 104.99 73.66 105.98 74 107 C74.598125 106.505 75.19625 106.01 75.8125 105.5 C78 104 78 104 81 104 C81.33 101.69 81.66 99.38 82 97 C83.32 97.33 84.64 97.66 86 98 C86.02895976 101.12498063 86.04678483 104.2499269 86.0625 107.375 C86.07087891 108.26445312 86.07925781 109.15390625 86.08789062 110.0703125 C86.09111328 110.92109375 86.09433594 111.771875 86.09765625 112.6484375 C86.10289307 113.43395996 86.10812988 114.21948242 86.11352539 115.02880859 C86 117 86 117 85 119 C77.49230769 119.36923077 77.49230769 119.36923077 75 117.5 C74.67 117.005 74.34 116.51 74 116 C73.566875 116.763125 73.13375 117.52625 72.6875 118.3125 C71 121 71 121 69.375 122.4375 C65.65828388 126.66104105 66.70561072 135.19867631 66.5703125 140.63476562 C66.31764237 146.49355436 65.26414309 151.29728198 61.38671875 155.92578125 C57.68242478 158.94882575 54.63342715 160.59919644 50 162 C49.34 162.99 48.68 163.98 48 165 C47.34 165 46.68 165 46 165 C45.34 166.32 44.68 167.64 44 169 C43.01604248 169.02187378 43.01604248 169.02187378 42.01220703 169.04418945 C39.04919969 169.11851414 36.08733883 169.21522369 33.125 169.3125 C32.09246094 169.33505859 31.05992187 169.35761719 29.99609375 169.38085938 C29.00996094 169.41630859 28.02382813 169.45175781 27.0078125 169.48828125 C26.09660645 169.51446533 25.18540039 169.54064941 24.24658203 169.56762695 C23.50520996 169.71031006 22.76383789 169.85299316 22 170 C21.34 170.99 20.68 171.98 20 173 C19.34 173 18.68 173 18 173 C18 173.66 18 174.32 18 175 C17.34 175 16.68 175 16 175 C16 175.66 16 176.32 16 177 C14.01739574 178.68732277 12.0167658 180.35366057 10 182 C9.67 182.66 9.34 183.32 9 184 C8.34 184 7.68 184 7 184 C7 184.66 7 185.32 7 186 C6.34 186 5.68 186 5 186 C4.731875 186.639375 4.46375 187.27875 4.1875 187.9375 C3 190 3 190 0 191 C-1.90234375 189.70703125 -1.90234375 189.70703125 -3.9375 187.8125 C-4.63746094 187.16539062 -5.33742188 186.51828125 -6.05859375 185.8515625 C-7.01958984 184.93503906 -7.01958984 184.93503906 -8 184 C-8.825 183.236875 -9.65 182.47375 -10.5 181.6875 C-12 180 -12 180 -12 178 C-12.66 178 -13.32 178 -14 178 C-14 177.34 -14 176.68 -14 176 C-14.66 176 -15.32 176 -16 176 C-16 175.34 -16 174.68 -16 174 C-16.66 174 -17.32 174 -18 174 C-18 173.34 -18 172.68 -18 172 C-18.66 172 -19.32 172 -20 172 C-20 171.34 -20 170.68 -20 170 C-21.0058313 170.00169189 -21.0058313 170.00169189 -22.03198242 170.00341797 C-25.08483288 169.9912752 -28.13520227 169.9335924 -31.1875 169.875 C-32.24259766 169.87757813 -33.29769531 169.88015625 -34.38476562 169.8828125 C-42.03353949 169.68978351 -42.03353949 169.68978351 -44.85400391 167.67675781 C-46.68160594 165.55583693 -48 163.87022922 -48 161 C-49.010625 160.95875 -50.02125 160.9175 -51.0625 160.875 C-55.79989534 160.1927382 -58.95767222 157.59205532 -62 154 C-66.26617594 147.69002815 -65.40662691 140.64124405 -65.3515625 133.32226562 C-65.39669085 127.14784345 -65.39669085 127.14784345 -68.34765625 121.8515625 C-71.18187609 119.87303496 -73.7253429 119.04510333 -77 118 C-79.56182474 116.26903734 -80.72427456 114.9744817 -81.5703125 111.984375 C-82.46157751 106.40922792 -81.63207664 102.94830409 -79 98 C-79.58910156 97.46890625 -80.17820313 96.9378125 -80.78515625 96.390625 C-81.53667969 95.68421875 -82.28820312 94.9778125 -83.0625 94.25 C-84.19365234 93.20585937 -84.19365234 93.20585937 -85.34765625 92.140625 C-87 90 -87 90 -86.96484375 87.9609375 C-85.80088445 85.59531981 -84.42815948 84.1688205 -82.5 82.375 C-79.88193354 79.96389084 -79.88193354 79.96389084 -78 77 C-77.34 77 -76.68 77 -76 77 C-76 76.34 -76 75.68 -76 75 C-75.34 75 -74.68 75 -74 75 C-74 74.34 -74 73.68 -74 73 C-72.69835317 72.01392621 -71.37384248 71.05792572 -70.0390625 70.1171875 C-67.43233238 67.89842514 -66.16668553 66.67838288 -65.34277344 63.32519531 C-65.20439207 60.23672827 -65.23790123 57.21353066 -65.375 54.125 C-65.66404705 46.36890414 -65.47125978 41.06931943 -60.63525391 34.74267578 C-58.60384734 32.57782358 -56.78492964 31.4014965 -54 30.375 C-50.23334172 28.96250314 -48.66984376 27.60765498 -46.4296875 24.37890625 C-44.44602736 21.94158392 -43.47582199 21.10275636 -40.36816406 20.43164062 C-37.26040951 20.3116815 -34.22998456 20.3885138 -31.125 20.5625 C-30.05507812 20.59408203 -28.98515625 20.62566406 -27.8828125 20.65820312 C-25.25236635 20.74040457 -22.62762146 20.85522309 -20 21 C-20 20.34 -20 19.68 -20 19 C-19.34 19 -18.68 19 -18 19 C-18 18.34 -18 17.68 -18 17 C-17.34 17 -16.68 17 -16 17 C-16 16.34 -16 15.68 -16 15 C-14.625 13.375 -14.625 13.375 -13 12 C-12.34 12 -11.68 12 -11 12 C-11 11.34 -11 10.68 -11 10 C-10.34 10 -9.68 10 -9 10 C-9 9.34 -9 8.68 -9 8 C-8.34 8 -7.68 8 -7 8 C-7 7.34 -7 6.68 -7 6 C-6.34 6 -5.68 6 -5 6 C-5 5.34 -5 4.68 -5 4 C-4.34 4 -3.68 4 -3 4 C-3 3.34 -3 2.68 -3 2 C-2.01 1.34 -1.02 0.68 0 0 Z M-75 100 C-77.62288407 102.62288407 -78.8850867 104.31052021 -79.5 108 C-78.8665852 111.8004888 -77.82847039 113.39482991 -75 116 C-71.95957066 117.06340185 -71.95957066 117.06340185 -69 117 C-68.34 116.34 -67.68 115.68 -67 115 C-68.11375 114.896875 -69.2275 114.79375 -70.375 114.6875 C-72.169375 114.3471875 -72.169375 114.3471875 -74 114 C-76.33909307 110.4913604 -76.41291057 109.12910567 -76 105 C-74.5 102.125 -74.5 102.125 -73 100 C-73.66 100 -74.32 100 -75 100 Z M79 108 C77.73527935 109.05429686 77.73527935 109.05429686 77.75 111.4375 C77.8325 112.283125 77.915 113.12875 78 114 C79.485 114.99 79.485 114.99 81 116 C81.33 113.69 81.66 111.38 82 109 C81.01 108.67 80.02 108.34 79 108 Z " fill="#582667" transform="translate(251,154)"/>
<path d="M0 0 C21.45406031 5.87976268 41.54834876 27.07587687 53.34442139 45.28289795 C60.08294391 57.63514216 58.38425818 72.15077267 54.984375 85.2890625 C56.634375 85.6190625 58.284375 85.9490625 59.984375 86.2890625 C60.314375 87.2790625 60.644375 88.2690625 60.984375 89.2890625 C61.54125 88.9796875 62.098125 88.6703125 62.671875 88.3515625 C65.10977933 87.23144429 67.34661686 86.72868886 69.984375 86.2890625 C70.314375 83.9790625 70.644375 81.6690625 70.984375 79.2890625 C72.304375 79.6190625 73.624375 79.9490625 74.984375 80.2890625 C75.01333476 83.41404313 75.03115983 86.5389894 75.046875 89.6640625 C75.05525391 90.55351562 75.06363281 91.44296875 75.07226562 92.359375 C75.07548828 93.21015625 75.07871094 94.0609375 75.08203125 94.9375 C75.08726807 95.72302246 75.09250488 96.50854492 75.09790039 97.31787109 C74.984375 99.2890625 74.984375 99.2890625 73.984375 101.2890625 C68.57981474 101.64345989 68.57981474 101.64345989 65.984375 101.2890625 C65.51 100.6290625 65.035625 99.9690625 64.546875 99.2890625 C64.03125 98.6290625 63.515625 97.9690625 62.984375 97.2890625 C59.96061084 96.91924962 57.01645014 97.06022664 53.984375 97.2890625 C53.654375 96.2990625 53.324375 95.3090625 52.984375 94.2890625 C56.449375 93.7940625 56.449375 93.7940625 59.984375 93.2890625 C59.48681408 90.53264834 59.48681408 90.53264834 57.984375 88.2890625 C55.52645471 87.95562699 55.52645471 87.95562699 52.984375 88.2890625 C50.74885741 91.64233889 50.81153972 92.19649907 51.359375 95.9765625 C51.47023438 96.78480469 51.58109375 97.59304688 51.6953125 98.42578125 C51.83839844 99.34810547 51.83839844 99.34810547 51.984375 100.2890625 C50.664375 100.2890625 49.344375 100.2890625 47.984375 100.2890625 C47.984375 95.9990625 47.984375 91.7090625 47.984375 87.2890625 C46.994375 87.2890625 46.004375 87.2890625 44.984375 87.2890625 C44.984375 91.5790625 44.984375 95.8690625 44.984375 100.2890625 C43.994375 100.2890625 43.004375 100.2890625 41.984375 100.2890625 C41.984375 99.6290625 41.984375 98.9690625 41.984375 98.2890625 C41.324375 98.2890625 40.664375 98.2890625 39.984375 98.2890625 C39.984375 95.3190625 39.984375 92.3490625 39.984375 89.2890625 C40.974375 89.2890625 41.964375 89.2890625 42.984375 89.2890625 C42.984375 88.2990625 42.984375 87.3090625 42.984375 86.2890625 C41.664375 86.2890625 40.344375 86.2890625 38.984375 86.2890625 C39.974375 84.3090625 39.974375 84.3090625 40.984375 82.2890625 C41.644375 82.2890625 42.304375 82.2890625 42.984375 82.2890625 C42.984375 81.6290625 42.984375 80.9690625 42.984375 80.2890625 C41.31375 80.7840625 41.31375 80.7840625 39.609375 81.2890625 C35.984375 82.2890625 35.984375 82.2890625 33.984375 82.2890625 C33.654375 81.6290625 33.324375 80.9690625 32.984375 80.2890625 C31.664375 80.6190625 30.344375 80.9490625 28.984375 81.2890625 C29.644375 82.9390625 30.304375 84.5890625 30.984375 86.2890625 C30.324375 86.2890625 29.664375 86.2890625 28.984375 86.2890625 C28.984375 90.9090625 28.984375 95.5290625 28.984375 100.2890625 C28.324375 100.2890625 27.664375 100.2890625 26.984375 100.2890625 C26.984375 99.2990625 26.984375 98.3090625 26.984375 97.2890625 C25.994375 97.2890625 25.004375 97.2890625 23.984375 97.2890625 C23.984375 94.6490625 23.984375 92.0090625 23.984375 89.2890625 C24.974375 89.2890625 25.964375 89.2890625 26.984375 89.2890625 C26.984375 88.2990625 26.984375 87.3090625 26.984375 86.2890625 C25.994375 86.2890625 25.004375 86.2890625 23.984375 86.2890625 C23.984375 85.2990625 23.984375 84.3090625 23.984375 83.2890625 C22.994375 83.2890625 22.004375 83.2890625 20.984375 83.2890625 C20.984375 84.2790625 20.984375 85.2690625 20.984375 86.2890625 C20.324375 86.2890625 19.664375 86.2890625 18.984375 86.2890625 C18.984375 87.2790625 18.984375 88.2690625 18.984375 89.2890625 C19.644375 89.2890625 20.304375 89.2890625 20.984375 89.2890625 C21.01015625 89.90394531 21.0359375 90.51882813 21.0625 91.15234375 C21.2658398 96.28160841 21.2658398 96.28160841 24.046875 100.3515625 C25.0059375 100.815625 25.0059375 100.815625 25.984375 101.2890625 C22.01396463 101.50964085 20.75125364 101.17250182 16.984375 99.2890625 C16.984375 94.9990625 16.984375 90.7090625 16.984375 86.2890625 C15.994375 86.7840625 15.994375 86.7840625 14.984375 87.2890625 C14.51685712 89.64505485 14.51685712 89.64505485 14.359375 92.3515625 C14.28460938 93.27066406 14.20984375 94.18976563 14.1328125 95.13671875 C14.05933594 96.20212891 14.05933594 96.20212891 13.984375 97.2890625 C12.664375 97.2890625 11.344375 97.2890625 9.984375 97.2890625 C9.984375 93.9890625 9.984375 90.6890625 9.984375 87.2890625 C8.994375 87.2890625 8.004375 87.2890625 6.984375 87.2890625 C7.479375 92.7340625 7.479375 92.7340625 7.984375 98.2890625 C12.46139864 99.35443455 12.46139864 99.35443455 14.984375 99.2890625 C14.984375 99.9490625 14.984375 100.6090625 14.984375 101.2890625 C12.014375 101.2890625 9.044375 101.2890625 5.984375 101.2890625 C5.984375 100.6290625 5.984375 99.9690625 5.984375 99.2890625 C5.324375 99.2890625 4.664375 99.2890625 3.984375 99.2890625 C3.654375 95.6590625 3.324375 92.0290625 2.984375 88.2890625 C0.18392454 87.43255597 0.18392454 87.43255597 -3.015625 87.2890625 C-5.41357881 89.10193445 -5.41357881 89.10193445 -7.015625 91.2890625 C-7.5725 90.6084375 -8.129375 89.9278125 -8.703125 89.2265625 C-10.85820289 86.96570735 -10.85820289 86.96570735 -13.703125 87.4765625 C-15.94913767 88.07833149 -15.94913767 88.07833149 -17.015625 89.2890625 C-17.35419328 94.61579286 -17.35419328 94.61579286 -15.015625 99.2890625 C-11.95005902 100.02249678 -11.95005902 100.02249678 -9.015625 100.2890625 C-9.015625 100.6190625 -9.015625 100.9490625 -9.015625 101.2890625 C-13.56368135 101.46741765 -16.8950504 101.28691685 -21.015625 99.2890625 C-20.99242187 98.67417969 -20.96921875 98.05929687 -20.9453125 97.42578125 C-20.92726563 96.61753906 -20.90921875 95.80929687 -20.890625 94.9765625 C-20.86742187 94.17605469 -20.84421875 93.37554687 -20.8203125 92.55078125 C-20.85745178 90.00517674 -20.85745178 90.00517674 -23.015625 87.2890625 C-25.59942677 87.03875273 -25.59942677 87.03875273 -28.015625 87.2890625 C-28.015625 84.9790625 -28.015625 82.6690625 -28.015625 80.2890625 C-29.005625 80.2890625 -29.995625 80.2890625 -31.015625 80.2890625 C-31.015625 86.5590625 -31.015625 92.8290625 -31.015625 99.2890625 C-32.005625 99.6190625 -32.995625 99.9490625 -34.015625 100.2890625 C-34.015625 95.6690625 -34.015625 91.0490625 -34.015625 86.2890625 C-35.335625 86.2890625 -36.655625 86.2890625 -38.015625 86.2890625 C-38.015625 87.6090625 -38.015625 88.9290625 -38.015625 90.2890625 C-38.675625 90.2890625 -39.335625 90.2890625 -40.015625 90.2890625 C-40.675625 88.6390625 -41.335625 86.9890625 -42.015625 85.2890625 C-44.015625 85.62239583 -46.015625 85.95572917 -48.015625 86.2890625 C-50.015625 86.62239583 -52.015625 86.95572917 -54.015625 87.2890625 C-54.015625 84.9790625 -54.015625 82.6690625 -54.015625 80.2890625 C-55.335625 80.2890625 -56.655625 80.2890625 -58.015625 80.2890625 C-58.015625 81.9390625 -58.015625 83.5890625 -58.015625 85.2890625 C-60.490625 85.7840625 -60.490625 85.7840625 -63.015625 86.2890625 C-63.015625 85.2990625 -63.015625 84.3090625 -63.015625 83.2890625 C-63.675625 83.2890625 -64.335625 83.2890625 -65.015625 83.2890625 C-65.015625 84.2790625 -65.015625 85.2690625 -65.015625 86.2890625 C-66.335625 85.9590625 -67.655625 85.6290625 -69.015625 85.2890625 C-69.015625 83.9690625 -69.015625 82.6490625 -69.015625 81.2890625 C-70.005625 81.2890625 -70.995625 81.2890625 -72.015625 81.2890625 C-72.015625 82.2790625 -72.015625 83.2690625 -72.015625 84.2890625 C-71.355625 84.2890625 -70.695625 84.2890625 -70.015625 84.2890625 C-70.015625 84.9490625 -70.015625 85.6090625 -70.015625 86.2890625 C-70.675625 86.2890625 -71.335625 86.2890625 -72.015625 86.2890625 C-72.015625 90.5790625 -72.015625 94.8690625 -72.015625 99.2890625 C-73.005625 98.9590625 -73.995625 98.6290625 -75.015625 98.2890625 C-75.015625 95.6490625 -75.015625 93.0090625 -75.015625 90.2890625 C-76.995625 90.2890625 -78.975625 90.2890625 -81.015625 90.2890625 C-81.015625 89.6290625 -81.015625 88.9690625 -81.015625 88.2890625 C-79.530625 87.7940625 -79.530625 87.7940625 -78.015625 87.2890625 C-79.995625 86.6290625 -81.975625 85.9690625 -84.015625 85.2890625 C-84.015625 84.9590625 -84.015625 84.6290625 -84.015625 84.2890625 C-78.265625 84.1640625 -78.265625 84.1640625 -76.015625 85.2890625 C-76.015625 84.2990625 -76.015625 83.3090625 -76.015625 82.2890625 C-79.315625 81.9590625 -82.615625 81.6290625 -86.015625 81.2890625 C-86.015625 80.9590625 -86.015625 80.6290625 -86.015625 80.2890625 C-84.55739288 80.2620582 -83.09901825 80.24266463 -81.640625 80.2265625 C-80.82851562 80.21496094 -80.01640625 80.20335937 -79.1796875 80.19140625 C-77.015625 80.2890625 -77.015625 80.2890625 -75.015625 81.2890625 C-75.24080811 80.48428467 -75.46599121 79.67950684 -75.69799805 78.8503418 C-78.46005174 67.23703214 -79.40070571 55.19257336 -73.41992188 44.4130249 C-57.84829747 20.59554442 -30.75328116 -6.3210754 0 0 Z M67.984375 90.2890625 C66.71965435 91.34335936 66.71965435 91.34335936 66.734375 93.7265625 C66.816875 94.5721875 66.899375 95.4178125 66.984375 96.2890625 C68.469375 97.2790625 68.469375 97.2790625 69.984375 98.2890625 C70.314375 95.9790625 70.644375 93.6690625 70.984375 91.2890625 C69.994375 90.9590625 69.004375 90.6290625 67.984375 90.2890625 Z " fill="#572567" transform="translate(262.015625,171.7109375)"/>
<path d="M0 0 C3.72390287 2.36975637 7.09634199 4.64962537 10 8 C10 8.66 10 9.32 10 10 C10.66 10 11.32 10 12 10 C12 10.66 12 11.32 12 12 C12.66 12 13.32 12 14 12 C14 12.66 14 13.32 14 14 C14.66 14 15.32 14 16 14 C16 14.66 16 15.32 16 16 C16.66 16 17.32 16 18 16 C18 16.66 18 17.32 18 18 C18.66 18 19.32 18 20 18 C20 18.66 20 19.32 20 20 C27.92 20.33 35.84 20.66 44 21 C44.99 22.98 44.99 22.98 46 25 C46.66 25 47.32 25 48 25 C48.65162109 25.91652344 48.65162109 25.91652344 49.31640625 26.8515625 C51.3160885 29.4033612 52.97530047 30.11884922 55.9375 31.375 C60.44883321 33.51229343 62.74917557 35.40048922 65 40 C65.92039752 42.97075763 66.10062582 45.60126765 66.0703125 48.703125 C65.56349262 59.87383285 65.56349262 59.87383285 69.875 69.625 C71.22388298 70.78118541 72.60278577 71.90271134 74 73 C75.41706417 74.41106813 76.83326326 75.82320764 78.22900391 77.25537109 C80.45418515 79.53567903 82.73156849 81.76283324 85 84 C86.3344505 85.33221523 87.66822703 86.66510813 89 88 C87.7260411 90.03833424 86.38938077 92.03852126 85 94 C84.34 94 83.68 94 83 94 C83 94.66 83 95.32 83 96 C82.34 96 81.68 96 81 96 C81 96.66 81 97.32 81 98 C80.34 98 79.68 98 79 98 C79 98.66 79 99.32 79 100 C78.34 100 77.68 100 77 100 C77 100.66 77 101.32 77 102 C76.34 102 75.68 102 75 102 C75 102.66 75 103.32 75 104 C74.34 104 73.68 104 73 104 C72.67 104.99 72.34 105.98 72 107 C71.34 106.01 70.68 105.02 70 104 C67.94074861 103.27617533 67.94074861 103.27617533 66 103 C66.29233521 101.65651489 66.29233521 101.65651489 66.59057617 100.28588867 C69.14718274 86.20722413 69.45655982 72.42497577 61.42529297 60.02734375 C48.86758866 42.57193255 30.14769656 22.64486971 8.38064575 18.2766571 C-6.26244881 16.29461512 -18.16117235 20.3796488 -29.98170471 28.96165466 C-44.55846079 40.35683132 -62.91253879 56.0851735 -65.84375 75.359375 C-66.67617929 83.34925938 -65.82606689 91.20081709 -64 99 C-64.99 99 -65.98 99 -67 99 C-66.34 99.33 -65.68 99.66 -65 100 C-65 100.99 -65 101.98 -65 103 C-65.99 103 -66.98 103 -68 103 C-67.34 103.66 -66.68 104.32 -66 105 C-67.98 105.495 -67.98 105.495 -70 106 C-70 106.66 -70 107.32 -70 108 C-68.35 108 -66.7 108 -65 108 C-65 110.97 -65 113.94 -65 117 C-72.78481013 119.59493671 -72.78481013 119.59493671 -77 118 C-79.55010894 116.29992737 -80.73092811 114.94632766 -81.57421875 111.98046875 C-82.45740501 106.40594903 -81.63177834 102.94774328 -79 98 C-79.58910156 97.46890625 -80.17820313 96.9378125 -80.78515625 96.390625 C-81.53667969 95.68421875 -82.28820312 94.9778125 -83.0625 94.25 C-84.19365234 93.20585937 -84.19365234 93.20585937 -85.34765625 92.140625 C-87 90 -87 90 -86.96484375 87.9609375 C-85.80088445 85.59531981 -84.42815948 84.1688205 -82.5 82.375 C-79.88193354 79.96389084 -79.88193354 79.96389084 -78 77 C-77.34 77 -76.68 77 -76 77 C-76 76.34 -76 75.68 -76 75 C-75.34 75 -74.68 75 -74 75 C-74 74.34 -74 73.68 -74 73 C-72.69835317 72.01392621 -71.37384248 71.05792572 -70.0390625 70.1171875 C-67.43233238 67.89842514 -66.16668553 66.67838288 -65.34277344 63.32519531 C-65.20439207 60.23672827 -65.23790123 57.21353066 -65.375 54.125 C-65.66404705 46.36890414 -65.47125978 41.06931943 -60.63525391 34.74267578 C-58.60384734 32.57782358 -56.78492964 31.4014965 -54 30.375 C-50.23334172 28.96250314 -48.66984376 27.60765498 -46.4296875 24.37890625 C-44.44602736 21.94158392 -43.47582199 21.10275636 -40.36816406 20.43164062 C-37.26040951 20.3116815 -34.22998456 20.3885138 -31.125 20.5625 C-30.05507812 20.59408203 -28.98515625 20.62566406 -27.8828125 20.65820312 C-25.25236635 20.74040457 -22.62762146 20.85522309 -20 21 C-20 20.34 -20 19.68 -20 19 C-19.34 19 -18.68 19 -18 19 C-18 18.34 -18 17.68 -18 17 C-17.34 17 -16.68 17 -16 17 C-16 16.34 -16 15.68 -16 15 C-14.625 13.375 -14.625 13.375 -13 12 C-12.34 12 -11.68 12 -11 12 C-11 11.34 -11 10.68 -11 10 C-10.34 10 -9.68 10 -9 10 C-9 9.34 -9 8.68 -9 8 C-8.34 8 -7.68 8 -7 8 C-7 7.34 -7 6.68 -7 6 C-6.34 6 -5.68 6 -5 6 C-5 5.34 -5 4.68 -5 4 C-4.34 4 -3.68 4 -3 4 C-3 3.34 -3 2.68 -3 2 C-2.01 1.34 -1.02 0.68 0 0 Z M-75 100 C-77.62288407 102.62288407 -78.8850867 104.31052021 -79.5 108 C-78.8665852 111.8004888 -77.82847039 113.39482991 -75 116 C-71.95957066 117.06340185 -71.95957066 117.06340185 -69 117 C-68.34 116.34 -67.68 115.68 -67 115 C-68.11375 114.896875 -69.2275 114.79375 -70.375 114.6875 C-72.169375 114.3471875 -72.169375 114.3471875 -74 114 C-76.33909307 110.4913604 -76.41291057 109.12910567 -76 105 C-74.5 102.125 -74.5 102.125 -73 100 C-73.66 100 -74.32 100 -75 100 Z " fill="#9E6FAA" transform="translate(251,154)"/>
<path d="M0 0 C3.85390817 -0.11693501 7.70735512 -0.1874962 11.5625 -0.25 C12.64853516 -0.28351563 13.73457031 -0.31703125 14.85351562 -0.3515625 C21.50108222 -0.43238398 25.64062865 -0.05416391 31 4 C34.87551055 8.89538174 36.13022745 12.57223571 36.0703125 18.703125 C35.56349262 29.87383285 35.56349262 29.87383285 39.875 39.625 C41.22388298 40.78118541 42.60278577 41.90271134 44 43 C45.41706417 44.41106813 46.83326326 45.82320764 48.22900391 47.25537109 C50.45418515 49.53567903 52.73156849 51.76283324 55 54 C56.3344505 55.33221523 57.66822703 56.66510813 59 58 C57.7260411 60.03833424 56.38938077 62.03852126 55 64 C54.34 64 53.68 64 53 64 C53 64.66 53 65.32 53 66 C52.34 66 51.68 66 51 66 C51 66.66 51 67.32 51 68 C50.34 68 49.68 68 49 68 C49 68.66 49 69.32 49 70 C48.34 70 47.68 70 47 70 C47 70.66 47 71.32 47 72 C46.34 72 45.68 72 45 72 C45 72.66 45 73.32 45 74 C44.34 74 43.68 74 43 74 C42.505 75.485 42.505 75.485 42 77 C41.34 76.01 40.68 75.02 40 74 C37.94074861 73.27617533 37.94074861 73.27617533 36 73 C36.15299561 72.06244873 36.30599121 71.12489746 36.46362305 70.15893555 C38.38534096 56.95415427 39.8563372 42.08080846 31.51757812 30.82861328 C22.66191783 20.16503252 12.01182932 10.97554784 1.32200623 2.20001221 C0.88574417 1.80400818 0.44948212 1.40800415 0 1 C0 0.67 0 0.34 0 0 Z " fill="#875996" transform="translate(281,184)"/>
<path d="M0 0 C3.72390287 2.36975637 7.09634199 4.64962537 10 8 C10 8.66 10 9.32 10 10 C10.66 10 11.32 10 12 10 C12 10.66 12 11.32 12 12 C12.66 12 13.32 12 14 12 C14 12.66 14 13.32 14 14 C14.66 14 15.32 14 16 14 C16 14.66 16 15.32 16 16 C16.66 16 17.32 16 18 16 C18 16.66 18 17.32 18 18 C18.66 18 19.32 18 20 18 C20 18.66 20 19.32 20 20 C27.92 20.33 35.84 20.66 44 21 C44.99 22.98 44.99 22.98 46 25 C46.66 25 47.32 25 48 25 C49.625 27.5 49.625 27.5 51 30 C47.48003799 30.20488457 43.96162121 30.32813842 40.4375 30.4375 C39.44685547 30.49615234 38.45621094 30.55480469 37.43554688 30.61523438 C36.46552734 30.63779297 35.49550781 30.66035156 34.49609375 30.68359375 C33.61107178 30.72025146 32.7260498 30.75690918 31.81420898 30.79467773 C28.58326402 29.88232189 27.9329217 28.98432531 25.77172852 26.51538086 C23.0486836 23.60960885 21.35358944 22.48293479 17.36914062 22.09423828 C15.63209449 22.04848808 13.89367456 22.04241552 12.15625 22.0703125 C11.22832642 22.06361542 10.30040283 22.05691833 9.34436035 22.05001831 C7.39116067 22.04527514 5.43784818 22.05805113 3.48486328 22.08740234 C0.50690302 22.12491305 -2.46367379 22.0877208 -5.44140625 22.04296875 C-7.34637035 22.04759478 -9.25132989 22.05656416 -11.15625 22.0703125 C-12.4799762 22.04905807 -12.4799762 22.04905807 -13.83044434 22.02737427 C-17.53270705 22.12488422 -20.02891589 22.22004601 -22.97970581 24.59005737 C-24.16150044 25.84450274 -25.32172583 27.11970404 -26.45684814 28.41653442 C-28 30 -28 30 -30.73486328 30.87060547 C-31.58806152 30.86947754 -32.44125977 30.86834961 -33.3203125 30.8671875 C-34.26777344 30.88523438 -35.21523437 30.90328125 -36.19140625 30.921875 C-37.15949219 30.90640625 -38.12757813 30.8909375 -39.125 30.875 C-41.06512886 30.89037751 -43.00523824 30.90851343 -44.9453125 30.9296875 C-45.79625488 30.92179199 -46.64719727 30.91389648 -47.52392578 30.90576172 C-50.11033846 31.00419943 -52.47944014 31.42804197 -55 32 C-54.67 31.34 -54.34 30.68 -54 30 C-53.278125 29.773125 -52.55625 29.54625 -51.8125 29.3125 C-48.74841274 27.88259261 -48.35372272 27.14717433 -46.56640625 24.4453125 C-44.53386886 22.00495208 -43.49648283 21.10765162 -40.35961914 20.42749023 C-37.25544393 20.3116533 -34.22628917 20.38872087 -31.125 20.5625 C-30.05507812 20.59408203 -28.98515625 20.62566406 -27.8828125 20.65820312 C-25.25236635 20.74040457 -22.62762146 20.85522309 -20 21 C-20 20.34 -20 19.68 -20 19 C-19.34 19 -18.68 19 -18 19 C-18 18.34 -18 17.68 -18 17 C-17.34 17 -16.68 17 -16 17 C-16 16.34 -16 15.68 -16 15 C-14.625 13.375 -14.625 13.375 -13 12 C-12.34 12 -11.68 12 -11 12 C-11 11.34 -11 10.68 -11 10 C-10.34 10 -9.68 10 -9 10 C-9 9.34 -9 8.68 -9 8 C-8.34 8 -7.68 8 -7 8 C-7 7.34 -7 6.68 -7 6 C-6.34 6 -5.68 6 -5 6 C-5 5.34 -5 4.68 -5 4 C-4.34 4 -3.68 4 -3 4 C-3 3.34 -3 2.68 -3 2 C-2.01 1.34 -1.02 0.68 0 0 Z " fill="#A879B4" transform="translate(251,154)"/>
<path d="M0 0 C1.98 0 3.96 0 6 0 C5.0409375 1.051875 5.0409375 1.051875 4.0625 2.125 C0.06814021 7.69289547 0.73577037 14.9869046 0.5703125 21.63476562 C0.31764237 27.49355436 -0.73585691 32.29728198 -4.61328125 36.92578125 C-8.31757522 39.94882575 -11.36657285 41.59919644 -16 43 C-16.66 43.99 -17.32 44.98 -18 46 C-18.66 46 -19.32 46 -20 46 C-20.66 47.32 -21.32 48.64 -22 50 C-29.26 50 -36.52 50 -44 50 C-38.94424602 44.10162035 -33.73916721 38.55296766 -28.2578125 33.07250977 C-26.73407487 31.54655166 -25.2185557 30.01271855 -23.703125 28.47851562 C-22.7348633 27.50732543 -21.76613071 26.53660442 -20.796875 25.56640625 C-19.92385742 24.68927979 -19.05083984 23.81215332 -18.15136719 22.90844727 C-16 21 -16 21 -14 21 C-13.78472656 20.45085937 -13.56945312 19.90171875 -13.34765625 19.3359375 C-11.23533838 15.67458652 -8.01781157 13.046678 -4.90039062 10.2421875 C-1.47384363 6.99358369 -0.28506259 4.71396189 0 0 Z " fill="#8A5F98" transform="translate(317,273)"/>
<path d="M0 0 C3.49884604 -0.23470071 6.9956499 -0.3751631 10.5 -0.5 C11.97339844 -0.60054688 11.97339844 -0.60054688 13.4765625 -0.703125 C16.50527201 -0.78389059 19.0548831 -0.73300687 22 0 C23.73046875 1.78125 23.73046875 1.78125 25.34375 3.96875 C28.21262654 7.29169333 30.39152672 8.27982712 34.64648438 8.75195312 C40.42937284 9.1106204 46.20907594 9.05889075 52 9 C54.03517388 9.00809794 56.07033684 9.01978072 58.10546875 9.03515625 C63.07114747 9.06489827 68.03446572 9.0456951 73 9 C72.34 10.32 71.68 11.64 71 13 C70.34 13 69.68 13 69 13 C69 13.66 69 14.32 69 15 C68.34 15 67.68 15 67 15 C67 15.66 67 16.32 67 17 C65.01739574 18.68732277 63.0167658 20.35366057 61 22 C60.67 22.66 60.34 23.32 60 24 C59.34 24 58.68 24 58 24 C58 24.66 58 25.32 58 26 C57.34 26 56.68 26 56 26 C55.731875 26.639375 55.46375 27.27875 55.1875 27.9375 C54 30 54 30 51 31 C49.09765625 29.70703125 49.09765625 29.70703125 47.0625 27.8125 C46.36253906 27.16539062 45.66257813 26.51828125 44.94140625 25.8515625 C44.30074219 25.24054688 43.66007812 24.62953125 43 24 C42.175 23.236875 41.35 22.47375 40.5 21.6875 C39 20 39 20 39 18 C38.34 18 37.68 18 37 18 C37 17.34 37 16.68 37 16 C36.34 16 35.68 16 35 16 C35 15.34 35 14.68 35 14 C34.34 14 33.68 14 33 14 C33 13.34 33 12.68 33 12 C32.34 12 31.68 12 31 12 C31 11.34 31 10.68 31 10 C29.9941687 10.00169189 29.9941687 10.00169189 28.96801758 10.00341797 C25.91516712 9.9912752 22.86479773 9.9335924 19.8125 9.875 C18.75740234 9.87757813 17.70230469 9.88015625 16.61523438 9.8828125 C8.96646051 9.68978351 8.96646051 9.68978351 6.14599609 7.67675781 C4.31839406 5.55583693 3 3.87022922 3 1 C2.01 0.67 1.02 0.34 0 0 Z " fill="#A073AD" transform="translate(200,314)"/>
<path d="M0 0 C5.765625 4.703125 5.765625 4.703125 7.875 7.375 C10.29562563 10.36518461 12.9975619 12.67821278 15.9140625 15.171875 C19.09873605 17.96293721 22.03658854 20.97833966 25 24 C25.86625 24.845625 26.7325 25.69125 27.625 26.5625 C30.25528153 29.26199947 32.60044841 32.09423072 35 35 C30.97972342 35.17528316 26.9604372 35.28118359 22.9375 35.375 C21.80376953 35.42527344 20.67003906 35.47554688 19.50195312 35.52734375 C10.02159752 35.69318087 10.02159752 35.69318087 5.87890625 32.3515625 C-0.31815673 25.76106567 -0.39607006 19.81007134 -0.1875 11.125 C-0.17396484 10.05507813 -0.16042969 8.98515625 -0.14648438 7.8828125 C-0.11128624 5.25468489 -0.06204693 2.62760806 0 0 Z " fill="#895998" transform="translate(186,279)"/>
<path d="M0 0 C1.4550293 0.01353516 1.4550293 0.01353516 2.93945312 0.02734375 C5.31407793 0.05073907 7.68810928 0.08529883 10.0625 0.125 C6.0391261 4.94752355 1.83446762 9.50141174 -2.61328125 13.93359375 C-3.22390915 14.54517838 -3.83453705 15.156763 -4.46366882 15.78688049 C-5.74058385 17.06447039 -7.01873993 18.34082103 -8.2980957 19.6159668 C-10.26566566 21.57812256 -12.22776732 23.5456352 -14.18945312 25.51367188 C-15.43457483 26.75813376 -16.68000616 28.00228594 -17.92578125 29.24609375 C-18.51426346 29.83660019 -19.10274567 30.42710663 -19.70906067 31.0355072 C-23.82251452 35.125 -23.82251452 35.125 -24.9375 35.125 C-24.9375 27.865 -24.9375 20.605 -24.9375 13.125 C-24.2775 13.125 -23.6175 13.125 -22.9375 13.125 C-22.669375 12.42375 -22.40125 11.7225 -22.125 11 C-21.733125 10.05125 -21.34125 9.1025 -20.9375 8.125 C-20.545625 7.073125 -20.15375 6.02125 -19.75 4.9375 C-17.73816018 1.81567959 -16.62318321 1.36489408 -13.11938477 0.48022461 C-8.76714442 -0.22834759 -4.39637228 -0.07813102 0 0 Z " fill="#875A95" transform="translate(211.9375,183.875)"/>
<path d="M0 0 C0.33 0 0.66 0 1 0 C0.99363525 0.59425781 0.98727051 1.18851563 0.98071289 1.80078125 C0.96567917 6.48765869 1.06174135 11.15767543 1.35546875 15.8359375 C1.40856201 16.7129834 1.46165527 17.5900293 1.51635742 18.49365234 C2.46934268 23.43224227 5.18255791 26.00200883 9 29 C10.41706417 30.41106813 11.83326326 31.82320764 13.22900391 33.25537109 C15.45418515 35.53567903 17.73156849 37.76283324 20 40 C21.3344505 41.33221523 22.66822703 42.66510813 24 44 C22.7260411 46.03833424 21.38938077 48.03852126 20 50 C19.34 50 18.68 50 18 50 C18 50.66 18 51.32 18 52 C17.34 52 16.68 52 16 52 C16 52.66 16 53.32 16 54 C15.34 54 14.68 54 14 54 C14 54.66 14 55.32 14 56 C13.34 56 12.68 56 12 56 C12 56.66 12 57.32 12 58 C11.34 58 10.68 58 10 58 C10 58.66 10 59.32 10 60 C9.34 60 8.68 60 8 60 C7.67 60.99 7.34 61.98 7 63 C6.34 62.01 5.68 61.02 5 60 C2.94074861 59.27617533 2.94074861 59.27617533 1 59 C-0.19388403 19.36686044 -0.19388403 19.36686044 0 0 Z " fill="#A478AF" transform="translate(316,198)"/>
<path d="M0 0 C19.14 0 38.28 0 58 0 C50.33031294 8.94796824 50.33031294 8.94796824 48.17414856 9.28761292 C47.06664497 9.31262123 47.06664497 9.31262123 45.93676758 9.33813477 C45.09862015 9.36057755 44.26047272 9.38302032 43.39692688 9.40614319 C42.48863632 9.41778 41.58034576 9.42941681 40.64453125 9.44140625 C39.70953293 9.45517807 38.77453461 9.46894989 37.811203 9.48313904 C35.82821595 9.50644424 33.84514999 9.52369271 31.86206055 9.53540039 C28.8408081 9.56224844 25.8230995 9.63710378 22.80273438 9.71289062 C20.87502355 9.72955504 18.94728503 9.74331902 17.01953125 9.75390625 C15.67227715 9.79868858 15.67227715 9.79868858 14.29780579 9.84437561 C9.24056919 9.80927517 6.57231718 9.15244476 2.8737793 5.57788086 C0 2.39371922 0 2.39371922 0 0 Z " fill="#7D4C8E" transform="translate(223,314)"/>
<path d="M0 0 C2.03116502 -0.02655541 4.06219653 -0.0674236 6.09277344 -0.12304688 C9.0233402 -0.20240643 11.95132686 -0.23535046 14.8828125 -0.25878906 C15.78411896 -0.29178101 16.68542542 -0.32477295 17.61404419 -0.35876465 C22.72307907 -0.34267717 25.35414242 0.30281717 29.06591797 3.94238281 C31.9375 7.18714686 31.9375 7.18714686 31.9375 8.45996094 C13.1275 8.45996094 -5.6825 8.45996094 -25.0625 8.45996094 C-16.68633589 -1.31223052 -12.13422034 0.12118583 0 0 Z " fill="#835294" transform="translate(248.0625,175.5400390625)"/>
<path d="M0 0 C1.875 1.5625 1.875 1.5625 3 3 C3.99 1.68 4.98 0.36 6 -1 C11.875 -0.125 11.875 -0.125 13 1 C13.07226502 2.85287502 13.0838122 4.70833878 13.0625 6.5625 C13.05347656 7.57441406 13.04445313 8.58632813 13.03515625 9.62890625 C13.02355469 10.41136719 13.01195312 11.19382812 13 12 C10.36 12.33 7.72 12.66 5 13 C4.34 11.68 3.68 10.36 3 9 C2.34 9 1.68 9 1 9 C1 9.99 1 10.98 1 12 C-1.31 12.33 -3.62 12.66 -6 13 C-8.48192093 10.4146657 -8.99225664 9.07356189 -9.375 5.4375 C-9 2 -9 2 -7.875 0 C-4.97628638 -1.5459806 -3.07995476 -0.89832014 0 0 Z " fill="#4E2C5D" transform="translate(253,259)"/>
<path d="M0 0 C19.61482421 -1.31575188 19.61482421 -1.31575188 25.1015625 1.7109375 C27.125 3.875 27.125 3.875 28.6328125 6.0546875 C30.19171738 8.27278645 31.52033648 8.98897839 34 10 C34 10.99 34 11.98 34 13 C34.99 13.33 35.98 13.66 37 14 C37 14.66 37 15.32 37 16 C36.34 16 35.68 16 35 16 C35 15.34 35 14.68 35 14 C34.34 14 33.68 14 33 14 C33 13.34 33 12.68 33 12 C32.34 12 31.68 12 31 12 C31 11.34 31 10.68 31 10 C29.9941687 10.00169189 29.9941687 10.00169189 28.96801758 10.00341797 C25.91516712 9.9912752 22.86479773 9.9335924 19.8125 9.875 C18.75740234 9.87757813 17.70230469 9.88015625 16.61523438 9.8828125 C8.96646051 9.68978351 8.96646051 9.68978351 6.14599609 7.67675781 C4.31839406 5.55583693 3 3.87022922 3 1 C2.01 0.67 1.02 0.34 0 0 Z " fill="#D5C0DC" transform="translate(200,314)"/>
<path d="M0 0 C1.06992188 0.03158203 2.13984375 0.06316406 3.2421875 0.09570312 C5.87263365 0.17790457 8.49737854 0.29272309 11.125 0.4375 C10.16770084 1.56338014 9.20912105 2.6881715 8.25 3.8125 C7.71632812 4.43898437 7.18265625 5.06546875 6.6328125 5.7109375 C3.41363197 9.3971494 3.41363197 9.3971494 0.95776367 9.74047852 C0.07838135 9.76553467 -0.80100098 9.79059082 -1.70703125 9.81640625 C-3.15239258 9.86764648 -3.15239258 9.86764648 -4.62695312 9.91992188 C-6.14192383 9.95956055 -6.14192383 9.95956055 -7.6875 10 C-9.67328794 10.06025309 -11.65897521 10.12394232 -13.64453125 10.19140625 C-14.52729736 10.21533447 -15.41006348 10.2392627 -16.31958008 10.26391602 C-18.91176378 10.43999728 -21.34158548 10.87252665 -23.875 11.4375 C-23.545 10.7775 -23.215 10.1175 -22.875 9.4375 C-22.153125 9.210625 -21.43125 8.98375 -20.6875 8.75 C-17.62341274 7.32009261 -17.22872272 6.58467433 -15.44140625 3.8828125 C-11.2124465 -1.19467639 -6.15642827 -0.34497227 0 0 Z " fill="#DAC9E3" transform="translate(219.875,174.5625)"/>
<path d="M0 0 C7.92 0.33 15.84 0.66 24 1 C24.66 2.32 25.32 3.64 26 5 C26.66 5 27.32 5 28 5 C29.625 7.5 29.625 7.5 31 10 C11.59852456 11.47650099 11.59852456 11.47650099 5.53515625 8.03125 C0 2.36152755 0 2.36152755 0 0 Z " fill="#DDC8E4" transform="translate(271,174)"/>
<path d="M0 0 C0.86931152 0.01047363 1.73862305 0.02094727 2.63427734 0.03173828 C3.57529297 0.03818359 4.51630859 0.04462891 5.48583984 0.05126953 C6.47068359 0.06802734 7.45552734 0.08478516 8.47021484 0.10205078 C9.46279297 0.11107422 10.45537109 0.12009766 11.47802734 0.12939453 C13.93399618 0.15300962 16.38948653 0.18594279 18.84521484 0.22705078 C17.47021484 2.72705078 17.47021484 2.72705078 15.84521484 5.22705078 C15.18521484 5.22705078 14.52521484 5.22705078 13.84521484 5.22705078 C13.18521484 6.54705078 12.52521484 7.86705078 11.84521484 9.22705078 C4.58521484 9.22705078 -2.67478516 9.22705078 -10.15478516 9.22705078 C-2.46886651 0.26014569 -2.46886651 0.26014569 0 0 Z " fill="#D9C7E0" transform="translate(283.15478515625,313.77294921875)"/>
<path d="M0 0 C1.98 0 3.96 0 6 0 C6 0.99 6 1.98 6 3 C7.65 3 9.3 3 11 3 C10.67 5.64 10.34 8.28 10 11 C10.66 11.33 11.32 11.66 12 12 C11.505 12.53625 11.01 13.0725 10.5 13.625 C8.56897557 16.68245535 8.55477163 18.438173 9 22 C10.31135412 24.36290685 10.31135412 24.36290685 12 26 C12.33 26 12.66 26 13 26 C12.67 25.34 12.34 24.68 12 24 C14.31 24.33 16.62 24.66 19 25 C19 24.01 19 23.02 19 22 C18.01 22 17.02 22 16 22 C16 21.01 16 20.02 16 19 C17.98 19 19.96 19 22 19 C22 21.97 22 24.94 22 28 C14.21518987 30.59493671 14.21518987 30.59493671 10 29 C7.44989106 27.29992737 6.26907189 25.94632766 5.42578125 22.98046875 C4.54259499 17.40594903 5.36822166 13.94774328 8 9 C7.4225 8.43410156 6.845 7.86820313 6.25 7.28515625 C5.13625 6.18494141 5.13625 6.18494141 4 5.0625 C3.2575 4.33160156 2.515 3.60070312 1.75 2.84765625 C0 1 0 1 0 0 Z " fill="#8F8091" transform="translate(164,243)"/>
<path d="M0 0 C1.67542976 0.28604898 3.34385343 0.61781233 5 1 C5 1.66 5 2.32 5 3 C5.7425 2.67 6.485 2.34 7.25 2 C10 1 10 1 14 1 C14 3 14 3 12 5.125 C11.34 5.74375 10.68 6.3625 10 7 C11.32 7 12.64 7 14 7 C14 7.66 14 8.32 14 9 C12.68 9 11.36 9 10 9 C10 12.96 10 16.92 10 21 C9.34 21 8.68 21 8 21 C7.34 17.7 6.68 14.4 6 11 C5.34 11 4.68 11 4 11 C4 13.97 4 16.94 4 20 C3.01 20.33 2.02 20.66 1 21 C1.02320313 19.97519531 1.04640625 18.95039063 1.0703125 17.89453125 C1.08908036 16.53386149 1.10727947 15.1731838 1.125 13.8125 C1.14175781 13.13896484 1.15851563 12.46542969 1.17578125 11.77148438 C1.21538674 7.71192193 0.80020002 4.65001185 -1 1 C-0.67 0.67 -0.34 0.34 0 0 Z " fill="#654373" transform="translate(291,251)"/>
<path d="M0 0 C0.99 0 1.98 0 3 0 C3.33 1.98 3.66 3.96 4 6 C4.78375 6.103125 5.5675 6.20625 6.375 6.3125 C9 7 9 7 11 10 C11.45667063 13.5772533 11.43777431 15.33458305 9.4375 18.375 C7 20 7 20 0 20 C0 13.4 0 6.8 0 0 Z " fill="#E2D1E5" transform="translate(231,252)"/>
<path d="M0 0 C1.32 0.33 2.64 0.66 4 1 C4.02895976 4.12498063 4.04678483 7.2499269 4.0625 10.375 C4.07087891 11.26445312 4.07925781 12.15390625 4.08789062 13.0703125 C4.09111328 13.92109375 4.09433594 14.771875 4.09765625 15.6484375 C4.10289307 16.43395996 4.10812988 17.21948242 4.11352539 18.02880859 C4 20 4 20 3 22 C0.36 22 -2.28 22 -5 22 C-5.66 20.68 -6.32 19.36 -7 18 C-6.34 18 -5.68 18 -5 18 C-5.020625 17.05125 -5.04125 16.1025 -5.0625 15.125 C-5 12 -5 12 -4 10 C-4.99 10.33 -5.98 10.66 -7 11 C-6.67 10.01 -6.34 9.02 -6 8 C-4.35 7.67 -2.7 7.34 -1 7 C-0.67 4.69 -0.34 2.38 0 0 Z M-3 11 C-4.26472065 12.05429686 -4.26472065 12.05429686 -4.25 14.4375 C-4.1675 15.283125 -4.085 16.12875 -4 17 C-2.515 17.99 -2.515 17.99 -1 19 C-0.67 16.69 -0.34 14.38 0 12 C-0.99 11.67 -1.98 11.34 -3 11 Z " fill="#907696" transform="translate(333,251)"/>
<path d="M0 0 C5.26053037 -0.31563182 8.44573816 0.33409063 13 3 C13 2.34 13 1.68 13 1 C15.64 0.67 18.28 0.34 21 0 C21.33 0.99 21.66 1.98 22 3 C22.66 3 23.32 3 24 3 C24.07347656 3.92232422 24.07347656 3.92232422 24.1484375 4.86328125 C24.22320312 5.67152344 24.29796875 6.47976563 24.375 7.3125 C24.44460938 8.11300781 24.51421875 8.91351563 24.5859375 9.73828125 C24.89564426 12.27224441 24.89564426 12.27224441 27 15 C30.08365871 15.2502157 30.08365871 15.2502157 33 15 C33 15.66 33 16.32 33 17 C30.03 17 27.06 17 24 17 C24 16.34 24 15.68 24 15 C23.34 15 22.68 15 22 15 C21.67 11.37 21.34 7.74 21 4 C18.19954954 3.14349347 18.19954954 3.14349347 15 3 C12.60204619 4.81287195 12.60204619 4.81287195 11 7 C10.443125 6.319375 9.88625 5.63875 9.3125 4.9375 C7.15742211 2.67664485 7.15742211 2.67664485 4.3125 3.1875 C2.06648733 3.78926899 2.06648733 3.78926899 1 5 C0.66143172 10.32673036 0.66143172 10.32673036 3 15 C6.06556598 15.73343428 6.06556598 15.73343428 9 16 C9 16.33 9 16.66 9 17 C4.38820072 17.18085487 1.20961305 16.84670417 -3 15 C-2.88610125 13.20759337 -2.75852313 11.41605165 -2.625 9.625 C-2.55539063 8.62726563 -2.48578125 7.62953125 -2.4140625 6.6015625 C-2 4 -2 4 0 2 C0 1.34 0 0.68 0 0 Z " fill="#4B2556" transform="translate(244,256)"/>
<path d="M0 0 C0.99 0 1.98 0 3 0 C3 1.32 3 2.64 3 4 C4.32 4.33 5.64 4.66 7 5 C7 4.01 7 3.02 7 2 C7.66 2 8.32 2 9 2 C9 2.99 9 3.98 9 5 C9.99 5 10.98 5 12 5 C12 5.99 12 6.98 12 8 C11.01 8 10.02 8 9 8 C9 10.64 9 13.28 9 16 C9.99 16 10.98 16 12 16 C12 16.99 12 17.98 12 19 C9.5625 18.625 9.5625 18.625 7 18 C5.39274365 14.78548731 5.94251815 11.56387464 6 8 C5.34 8 4.68 8 4 8 C3.67 11.3 3.34 14.6 3 18 C2.01 18.33 1.02 18.66 0 19 C0 14.38 0 9.76 0 5 C0.66 5 1.32 5 2 5 C2 4.34 2 3.68 2 3 C1.34 3 0.68 3 0 3 C0 2.01 0 1.02 0 0 Z " fill="#C2ABC9" transform="translate(190,253)"/>
<path d="M0 0 C5.875 0.875 5.875 0.875 7 2 C7.07226502 3.85287502 7.0838122 5.70833878 7.0625 7.5625 C7.05347656 8.57441406 7.04445313 9.58632813 7.03515625 10.62890625 C7.02355469 11.41136719 7.01195312 12.19382812 7 13 C0.9453125 13.9765625 0.9453125 13.9765625 -1 14 C-1.66 13.34 -2.32 12.68 -3 12 C-2.625 9.375 -2.625 9.375 -2 7 C-0.02 6.67 1.96 6.34 4 6 C4 5.01 4 4.02 4 3 C2.02 3.33 0.04 3.66 -2 4 C-1.34 2.68 -0.68 1.36 0 0 Z " fill="#F9EDFB" transform="translate(259,258)"/>
<path d="M0 0 C9.41002278 -0.18451025 9.41002278 -0.18451025 14 1 C14 1.99 14 2.98 14 4 C14.66 4 15.32 4 16 4 C16 4.66 16 5.32 16 6 C15.34 6 14.68 6 14 6 C14 10.29 14 14.58 14 19 C13.01 18.67 12.02 18.34 11 18 C11 15.36 11 12.72 11 10 C9.02 10 7.04 10 5 10 C5 9.34 5 8.68 5 8 C5.99 7.67 6.98 7.34 8 7 C6.02 6.34 4.04 5.68 2 5 C2 4.67 2 4.34 2 4 C7.75 3.875 7.75 3.875 10 5 C10 4.01 10 3.02 10 2 C6.7 1.67 3.4 1.34 0 1 C0 0.67 0 0.34 0 0 Z " fill="#4B255B" transform="translate(176,252)"/>
<path d="M0 0 C0.99 0 1.98 0 3 0 C3.33 1.98 3.66 3.96 4 6 C4.804375 6.144375 5.60875 6.28875 6.4375 6.4375 C9 7 9 7 10 8 C10.07244053 10.01964199 10.08377188 12.04167124 10.0625 14.0625 C10.05347656 15.16722656 10.04445312 16.27195312 10.03515625 17.41015625 C10.02355469 18.26480469 10.01195312 19.11945313 10 20 C9.01 19.67 8.02 19.34 7 19 C7 15.7 7 12.4 7 9 C5.68 9.33 4.36 9.66 3 10 C2.67 12.97 2.34 15.94 2 19 C1.34 19 0.68 19 0 19 C0 12.73 0 6.46 0 0 Z " fill="#DACADE" transform="translate(205,252)"/>
<path d="M0 0 C2.5625 0.3125 2.5625 0.3125 4.4375 1.5625 C5.5625 3.3125 5.5625 3.3125 5.25 5.5 C4.9096875 6.3971875 4.9096875 6.3971875 4.5625 7.3125 C2.5825 7.6425 0.6025 7.9725 -1.4375 8.3125 C-1.4375 8.9725 -1.4375 9.6325 -1.4375 10.3125 C1.2025 9.9825 3.8425 9.6525 6.5625 9.3125 C6.8925 10.3025 7.2225 11.2925 7.5625 12.3125 C6.9025 12.9725 6.2425 13.6325 5.5625 14.3125 C5.5625 13.6525 5.5625 12.9925 5.5625 12.3125 C3.6753125 12.43625 3.6753125 12.43625 1.75 12.5625 C-2.13769009 12.54871386 -2.13769009 12.54871386 -4.5 10.6875 C-5.75606608 7.50546594 -5.35820253 5.57037048 -4.4375 2.3125 C-2.4375 0.3125 -2.4375 0.3125 0 0 Z " fill="#C8B8CC" transform="translate(317.4375,258.6875)"/>
<path d="M0 0 C0.66 0 1.32 0 2 0 C2 4.62 2 9.24 2 14 C-4.0546875 14.1953125 -4.0546875 14.1953125 -6 14 C-8 12 -8 12 -8.1953125 9.3984375 C-8.17210937 8.40070313 -8.14890625 7.40296875 -8.125 6.375 C-8.10695313 5.37210937 -8.08890625 4.36921875 -8.0703125 3.3359375 C-8.04710937 2.56507813 -8.02390625 1.79421875 -8 1 C-7.01 1 -6.02 1 -5 1 C-5 4.3 -5 7.6 -5 11 C-3.68 11 -2.36 11 -1 11 C-1.01160156 10.28972656 -1.02320313 9.57945312 -1.03515625 8.84765625 C-1.04869141 7.46900391 -1.04869141 7.46900391 -1.0625 6.0625 C-1.07410156 5.14597656 -1.08570313 4.22945313 -1.09765625 3.28515625 C-1 1 -1 1 0 0 Z " fill="#E4D4E8" transform="translate(277,258)"/>
<path d="M0 0 C4.455 0.99 4.455 0.99 9 2 C8.67 2.66 8.34 3.32 8 4 C7.01 4 6.02 4 5 4 C4.67 5.65 4.34 7.3 4 9 C4.99 9 5.98 9 7 9 C7 9.99 7 10.98 7 12 C0.84765625 11.4140625 0.84765625 11.4140625 -1 11 C-2.38550197 8.22899606 -2.1877467 6.0665294 -2 3 C-1.34 2.01 -0.68 1.02 0 0 Z " fill="#7E538C" transform="translate(176,256)"/>
<path d="M0 0 C4.18423892 3.50897269 8.19588166 7.08060535 12 11 C10.02 13.97 10.02 13.97 8 17 C7.34 16.67 6.68 16.34 6 16 C3.90178785 16.39938767 3.90178785 16.39938767 2 17 C1.8125 14.625 1.8125 14.625 2 12 C2.99 11.34 3.98 10.68 5 10 C4.34 10 3.68 10 3 10 C3.33 8.68 3.66 7.36 4 6 C2.68 5.67 1.36 5.34 0 5 C0 3.35 0 1.7 0 0 Z " fill="#B093B8" transform="translate(328,231)"/>
<path d="M0 0 C0.66 0 1.32 0 2 0 C2.33 3.3 2.66 6.6 3 10 C3.99 10 4.98 10 6 10 C6.33 6.7 6.66 3.4 7 0 C7.99 0 8.98 0 10 0 C10 4.29 10 8.58 10 13 C3.9453125 13.9765625 3.9453125 13.9765625 2 14 C0 12 0 12 -0.1953125 9.1796875 C-0.17210937 8.08914063 -0.14890625 6.99859375 -0.125 5.875 C-0.10695312 4.77929688 -0.08890625 3.68359375 -0.0703125 2.5546875 C-0.04710937 1.71164062 -0.02390625 0.86859375 0 0 Z " fill="#E6D5E7" transform="translate(218,258)"/>
<path d="M0 0 C1.98 0 3.96 0 6 0 C6 0.99 6 1.98 6 3 C7.65 3 9.3 3 11 3 C10.67 5.64 10.34 8.28 10 11 C10.66 11.33 11.32 11.66 12 12 C11.2884375 12.8353125 11.2884375 12.8353125 10.5625 13.6875 C8.87604004 16.18346074 8.41046893 18.0446237 8 21 C7.01 21.33 6.02 21.66 5 22 C5.11509661 20.58249437 5.24253658 19.16598831 5.375 17.75 C5.44460937 16.96109375 5.51421875 16.1721875 5.5859375 15.359375 C6.01507113 12.914123 6.78600638 11.15163097 8 9 C7.4225 8.43410156 6.845 7.86820313 6.25 7.28515625 C5.13625 6.18494141 5.13625 6.18494141 4 5.0625 C3.2575 4.33160156 2.515 3.60070312 1.75 2.84765625 C0 1 0 1 0 0 Z " fill="#A987B1" transform="translate(164,243)"/>
<path d="M0 0 C1.65 0.33 3.3 0.66 5 1 C5.33 1.99 5.66 2.98 6 4 C7.32 4 8.64 4 10 4 C10.66 4 11.32 4 12 4 C11.67 6.64 11.34 9.28 11 12 C7.04 12 3.08 12 -1 12 C-1.33 11.01 -1.66 10.02 -2 9 C1.465 8.505 1.465 8.505 5 8 C4.88693303 6.04105639 4.88693303 6.04105639 4 4 C1.50965614 2.70339566 1.50965614 2.70339566 -1 2 C-0.67 1.34 -0.34 0.68 0 0 Z " fill="#7F6287" transform="translate(317,257)"/>
<path d="M0 0 C0.99 0 1.98 0 3 0 C3.33 1.98 3.66 3.96 4 6 C4.78375 6.103125 5.5675 6.20625 6.375 6.3125 C9 7 9 7 11 10 C11 11.32 11 12.64 11 14 C10.34 14 9.68 14 9 14 C8.34 12.68 7.68 11.36 7 10 C5.68 10 4.36 10 3 10 C2.34 12.97 1.68 15.94 1 19 C0.67 19 0.34 19 0 19 C0 12.73 0 6.46 0 0 Z " fill="#F0E0F3" transform="translate(231,252)"/>
<path d="M0 0 C0 0.66 0 1.32 0 2 C-2 3.625 -2 3.625 -4 5 C-1.69 5 0.62 5 3 5 C3 5.99 3 6.98 3 8 C0.69 8.33 -1.62 8.66 -4 9 C-1.69 9.66 0.62 10.32 3 11 C3 11.66 3 12.32 3 13 C0.69 13.33 -1.62 13.66 -4 14 C-6.48192093 11.4146657 -6.99225664 10.07356189 -7.375 6.4375 C-7 3 -7 3 -5.75 1.0625 C-4 0 -4 0 0 0 Z " fill="#F4E8F6" transform="translate(251,258)"/>
<path d="M0 0 C0.99 0 1.98 0 3 0 C3 0.99 3 1.98 3 3 C3.99 3 4.98 3 6 3 C6 3.99 6 4.98 6 6 C5.01 6 4.02 6 3 6 C3 8.64 3 11.28 3 14 C3.99 14 4.98 14 6 14 C5.67 14.99 5.34 15.98 5 17 C1.125 16.125 1.125 16.125 0 15 C-0.07179964 13.48071962 -0.08392007 11.95832518 -0.0625 10.4375 C-0.05347656 9.61121094 -0.04445313 8.78492188 -0.03515625 7.93359375 C-0.02355469 7.29550781 -0.01195312 6.65742188 0 6 C-0.66 6 -1.32 6 -2 6 C-2 5.01 -2 4.02 -2 3 C-1.34 3 -0.68 3 0 3 C0 2.01 0 1.02 0 0 Z " fill="#E7D3EA" transform="translate(283,255)"/>
<path d="M0 0 C1.32 0.66 2.64 1.32 4 2 C4 3.32 4 4.64 4 6 C4.66 6 5.32 6 6 6 C6.33 4.68 6.66 3.36 7 2 C7 5.3 7 8.6 7 12 C5.68 12.33 4.36 12.66 3 13 C2 12 2 12 1.90234375 9.71484375 C1.91394531 8.79832031 1.92554688 7.88179688 1.9375 6.9375 C1.94652344 6.01839844 1.95554688 5.09929687 1.96484375 4.15234375 C1.97644531 3.44207031 1.98804688 2.73179687 2 2 C1.34 2 0.68 2 0 2 C0 5.3 0 8.6 0 12 C-0.33 12 -0.66 12 -1 12 C-1 9.03 -1 6.06 -1 3 C-1.99 3.33 -2.98 3.66 -4 4 C-6.1875 2.5625 -6.1875 2.5625 -8 1 C-6.865625 1.020625 -5.73125 1.04125 -4.5625 1.0625 C-1.18424326 1.41577477 -1.18424326 1.41577477 0 0 Z " fill="#5B3766" transform="translate(218,256)"/>
<path d="M0 0 C0.66 0 1.32 0 2 0 C2.66 1.65 3.32 3.3 4 5 C3.34 5 2.68 5 2 5 C2 9.62 2 14.24 2 19 C1.34 19 0.68 19 0 19 C0 18.01 0 17.02 0 16 C-0.99 16 -1.98 16 -3 16 C-3 13.36 -3 10.72 -3 8 C-2.01 8 -1.02 8 0 8 C-0.2784375 6.2984375 -0.2784375 6.2984375 -0.5625 4.5625 C-0.706875 3.386875 -0.85125 2.21125 -1 1 C-0.67 0.67 -0.34 0.34 0 0 Z " fill="#481D5E" transform="translate(289,253)"/>
<path d="M0 0 C0.33 0 0.66 0 1 0 C1.66 1.98 2.32 3.96 3 6 C3.66 4.02 4.32 2.04 5 0 C6.32 0.66 7.64 1.32 9 2 C9.125 7.75 9.125 7.75 8 10 C5.36 10 2.72 10 0 10 C-0.66 8.68 -1.32 7.36 -2 6 C-1.34 6 -0.68 6 0 6 C0 4.02 0 2.04 0 0 Z " fill="#AA92B0" transform="translate(328,263)"/>
<path d="M0 0 C1.32 0 2.64 0 4 0 C4 2 4 2 2 4.125 C1.34 4.74375 0.68 5.3625 0 6 C1.32 6 2.64 6 4 6 C4 6.66 4 7.32 4 8 C2.68 8 1.36 8 0 8 C0 11.96 0 15.92 0 20 C-0.66 20 -1.32 20 -2 20 C-2 16.04 -2 12.08 -2 8 C-2.66 8 -3.32 8 -4 8 C-4 7.34 -4 6.68 -4 6 C-3.34 6 -2.68 6 -2 6 C-1.855625 5.195625 -1.71125 4.39125 -1.5625 3.5625 C-1 1 -1 1 0 0 Z " fill="#F9EBFA" transform="translate(301,252)"/>
<path d="M0 0 C0.66 0 1.32 0 2 0 C2 4.62 2 9.24 2 14 C1.01 14 0.02 14 -1 14 C-1 13.34 -1 12.68 -1 12 C-1.66 12 -2.32 12 -3 12 C-3 9.03 -3 6.06 -3 3 C-2.01 3 -1.02 3 0 3 C0 2.01 0 1.02 0 0 Z " fill="#441E55" transform="translate(305,258)"/>
<path d="M0 0 C0.66 0 1.32 0 2 0 C2 0.99 2 1.98 2 3 C2.66 3 3.32 3 4 3 C4.02578125 3.61488281 4.0515625 4.22976563 4.078125 4.86328125 C4.2814648 9.99254591 4.2814648 9.99254591 7.0625 14.0625 C7.701875 14.371875 8.34125 14.68125 9 15 C5.02958963 15.22057835 3.76687864 14.88343932 0 13 C0 8.71 0 4.42 0 0 Z " fill="#451F53" transform="translate(279,258)"/>
<path d="M0 0 C0.66 0 1.32 0 2 0 C2 0.99 2 1.98 2 3 C2.99 3 3.98 3 5 3 C5 3.99 5 4.98 5 6 C4.01 6 3.02 6 2 6 C2 8.64 2 11.28 2 14 C2.99 14 3.98 14 5 14 C5 14.99 5 15.98 5 17 C3.35 16.67 1.7 16.34 0 16 C0 12.37 0 8.74 0 5 C-0.66 5 -1.32 5 -2 5 C-2 4.34 -2 3.68 -2 3 C-1.34 3 -0.68 3 0 3 C0 2.01 0 1.02 0 0 Z " fill="#F1E4F4" transform="translate(197,255)"/>
<path d="M0 0 C0.66 0.33 1.32 0.66 2 1 C1.67 1.99 1.34 2.98 1 4 C0.34 4 -0.32 4 -1 4 C-1.2475 4.9075 -1.495 5.815 -1.75 6.75 C-3.06151011 10.15992629 -4.11647623 11.79495241 -7 14 C-8.32 14 -9.64 14 -11 14 C-11 13.01 -11 12.02 -11 11 C-10.34 11 -9.68 11 -9 11 C-9 10.34 -9 9.68 -9 9 C-8.34 9 -7.68 9 -7 9 C-7 8.34 -7 7.68 -7 7 C-5.625 5.375 -5.625 5.375 -4 4 C-3.34 4 -2.68 4 -2 4 C-2 3.34 -2 2.68 -2 2 C-1.34 2 -0.68 2 0 2 C0 1.34 0 0.68 0 0 Z " fill="#AE8CB6" transform="translate(242,162)"/>
<path d="M0 0 C0.33 0 0.66 0 1 0 C1 7.26 1 14.52 1 22 C1.66 22 2.32 22 3 22 C3.33 22.99 3.66 23.98 4 25 C4.99 25.66 5.98 26.32 7 27 C7.6875 30.125 7.6875 30.125 8 33 C3.84214887 30.07826677 1.78390767 27.77091587 0 23 C-0.35591374 19.03326622 -0.28304182 15.10345935 -0.1875 11.125 C-0.17396484 10.05507813 -0.16042969 8.98515625 -0.14648438 7.8828125 C-0.11128624 5.25468489 -0.06204693 2.62760806 0 0 Z " fill="#A98DB0" transform="translate(186,279)"/>
<path d="M0 0 C0.66 0.33 1.32 0.66 2 1 C-0.475 5.455 -0.475 5.455 -3 10 C-3.66 10 -4.32 10 -5 10 C-5 17.59 -5 25.18 -5 33 C-5.33 33 -5.66 33 -6 33 C-6.17616334 29.18809633 -6.28146835 25.37725502 -6.375 21.5625 C-6.42527344 20.49322266 -6.47554687 19.42394531 -6.52734375 18.32226562 C-6.67060811 10.51435805 -5.06961359 5.95836772 0 0 Z " fill="#C0ABC7" transform="translate(192,187)"/>
<path d="M0 0 C0.33 0 0.66 0 1 0 C1 4.95 1 9.9 1 15 C0.67 13.68 0.34 12.36 0 11 C-1.32 11 -2.64 11 -4 11 C-4 8.36 -4 5.72 -4 3 C-2.68 3 -1.36 3 0 3 C0 2.01 0 1.02 0 0 Z " fill="#4F285F" transform="translate(203,258)"/>
<path d="M0 0 C0.33 0 0.66 0 1 0 C1 5.94 1 11.88 1 18 C0.01 18.33 -0.98 18.66 -2 19 C-2.05428973 16.77110504 -2.09292338 14.54182529 -2.125 12.3125 C-2.15980469 10.45044922 -2.15980469 10.45044922 -2.1953125 8.55078125 C-2.01032021 5.18762143 -1.45767895 3.0014413 0 0 Z " fill="#441F4C" transform="translate(230,253)"/>
<path d="M0 0 C0.66 0 1.32 0 2 0 C2.07347656 0.92232422 2.07347656 0.92232422 2.1484375 1.86328125 C2.22320312 2.67152344 2.29796875 3.47976563 2.375 4.3125 C2.44460937 5.11300781 2.51421875 5.91351563 2.5859375 6.73828125 C2.89564426 9.27224441 2.89564426 9.27224441 5 12 C7.58380177 12.25030977 7.58380177 12.25030977 10 12 C10 12.66 10 13.32 10 14 C1 14 1 14 -2 13 C-1.34 13 -0.68 13 0 13 C0 8.71 0 4.42 0 0 Z " fill="#45214E" transform="translate(215,259)"/>
<path d="M0 0 C1.98 0 3.96 0 6 0 C6 2.97 6 5.94 6 9 C2.5879008 8.1469752 -0.67485327 7.13357275 -4 6 C-1.3333581 4.66667905 0.16680303 5.32897967 3 6 C3 5.01 3 4.02 3 3 C2.01 3 1.02 3 0 3 C0 2.01 0 1.02 0 0 Z " fill="#E7D8E8" transform="translate(180,262)"/>
<path d="M0 0 C0.33 0.99 0.66 1.98 1 3 C1.66 3 2.32 3 3 3 C3.66 6.96 4.32 10.92 5 15 C2.525 14.01 2.525 14.01 0 13 C0 8.71 0 4.42 0 0 Z " fill="#4C2359" transform="translate(193,258)"/>
<path d="M0 0 C5.94 0.33 11.88 0.66 18 1 C17.67 1.66 17.34 2.32 17 3 C15.741875 2.9175 14.48375 2.835 13.1875 2.75 C11.01202652 2.68311857 11.01202652 2.68311857 9 3 C6.94729537 4.84188612 6.94729537 4.84188612 6 7 C3 3.25 3 3.25 3 1 C2.01 0.67 1.02 0.34 0 0 Z " fill="#E6CEED" transform="translate(200,314)"/>
<path d="M0 0 C0.99 0.33 1.98 0.66 3 1 C3 4.96 3 8.92 3 13 C2.01 13.33 1.02 13.66 0 14 C0 9.38 0 4.76 0 0 Z " fill="#DFD1E3" transform="translate(292,258)"/>
<path d="M0 0 C0.66 0 1.32 0 2 0 C2.8931507 6.58183362 2.95494281 12.42150508 2 19 C1.34 19 0.68 19 0 19 C0 12.73 0 6.46 0 0 Z " fill="#FEF4FE" transform="translate(205,252)"/>
<path d="M0 0 C0.66 0 1.32 0 2 0 C2.02578125 0.69867188 2.0515625 1.39734375 2.078125 2.1171875 C2.13484375 3.02726562 2.1915625 3.93734375 2.25 4.875 C2.29640625 5.77992188 2.3428125 6.68484375 2.390625 7.6171875 C2.75611148 10.17110544 2.75611148 10.17110544 5.046875 11.3203125 C5.69140625 11.54460937 6.3359375 11.76890625 7 12 C6.67 12.66 6.34 13.32 6 14 C1.125 13.125 1.125 13.125 0 12 C-0.07244053 9.98035801 -0.08377188 7.95832876 -0.0625 5.9375 C-0.05347656 4.83277344 -0.04445312 3.72804688 -0.03515625 2.58984375 C-0.02355469 1.73519531 -0.01195312 0.88054687 0 0 Z " fill="#EEE0F0" transform="translate(218,258)"/>
<path d="M0 0 C0.99 0 1.98 0 3 0 C3 3.96 3 7.92 3 12 C2.01 12.33 1.02 12.66 0 13 C0 8.71 0 4.42 0 0 Z " fill="#DAC8DF" transform="translate(307,259)"/>
<path d="M0 0 C2.475 0.495 2.475 0.495 5 1 C5 2.98 5 4.96 5 7 C3.35 7.33 1.7 7.66 0 8 C0 5.36 0 2.72 0 0 Z " fill="#452553" transform="translate(234,261)"/>
<path d="M0 0 C1.32 0 2.64 0 4 0 C4 3.3 4 6.6 4 10 C2.68 10 1.36 10 0 10 C0 6.7 0 3.4 0 0 Z " fill="#4C215B" transform="translate(272,259)"/>
<path d="M0 0 C1.37562854 1.28965176 2.70766393 2.62689293 4 4 C4 4.66 4 5.32 4 6 C6.64 5.67 9.28 5.34 12 5 C12.33 5.99 12.66 6.98 13 8 C12.34 8.66 11.68 9.32 11 10 C11 9.34 11 8.68 11 8 C9.1128125 8.12375 9.1128125 8.12375 7.1875 8.25 C3.28571429 8.25 3.28571429 8.25 1 6.25 C0 4 0 4 0 0 Z " fill="#E0D1E4" transform="translate(312,263)"/>
<path d="M0 0 C0.12375 0.639375 0.2475 1.27875 0.375 1.9375 C0.684375 2.9584375 0.684375 2.9584375 1 4 C1.66 4.33 2.32 4.66 3 5 C2.2884375 5.8353125 2.2884375 5.8353125 1.5625 6.6875 C-0.12395996 9.18346074 -0.58953107 11.0446237 -1 14 C-1.99 14.33 -2.98 14.66 -4 15 C-3.63495936 9.33557626 -2.9445679 4.99296295 0 0 Z " fill="#B5A7B7" transform="translate(173,250)"/>
<path d="M0 0 C1.98 1.32 3.96 2.64 6 4 C5.67 4.66 5.34 5.32 5 6 C4.319375 5.773125 3.63875 5.54625 2.9375 5.3125 C-1.15527655 4.87709824 -3.33132959 6.20163215 -7 8 C-7 7.34 -7 6.68 -7 6 C-6.34 6 -5.68 6 -5 6 C-5 5.34 -5 4.68 -5 4 C-4.34 4 -3.68 4 -3 4 C-3 3.34 -3 2.68 -3 2 C-2.01 1.34 -1.02 0.68 0 0 Z " fill="#BBA3C2" transform="translate(251,154)"/>
<path d="M0 0 C1.32 0 2.64 0 4 0 C4 3.3 4 6.6 4 10 C2.68 9.67 1.36 9.34 0 9 C0 6.03 0 3.06 0 0 Z " fill="#461A53" transform="translate(208,261)"/>
<path d="M0 0 C1.65 0 3.3 0 5 0 C5.33 0.99 5.66 1.98 6 3 C4.8125 4.5625 4.8125 4.5625 3 6 C0.3125 5.6875 0.3125 5.6875 -2 5 C-2 4.34 -2 3.68 -2 3 C-1.34 3 -0.68 3 0 3 C0 2.01 0 1.02 0 0 Z " fill="#A292A7" transform="translate(259,266)"/>
<path d="M0 0 C0.99 0 1.98 0 3 0 C2.979375 1.051875 2.95875 2.10375 2.9375 3.1875 C2.98896802 6.32704904 3.26517187 8.96883396 4 12 C2.68 12 1.36 12 0 12 C0 8.04 0 4.08 0 0 Z " fill="#492357" transform="translate(310,260)"/>
<path d="M0 0 C0.33 1.32 0.66 2.64 1 4 C4.3 4.33 7.6 4.66 11 5 C11 5.33 11 5.66 11 6 C9.46279297 6.09087891 9.46279297 6.09087891 7.89453125 6.18359375 C6.53384305 6.26805026 5.17316657 6.35269567 3.8125 6.4375 C3.13896484 6.47681641 2.46542969 6.51613281 1.77148438 6.55664062 C-1.89699102 6.78927565 -5.41694206 7.17207011 -9 8 C-8 6 -8 6 -5.625 5.125 C-2.68498901 3.86499529 -1.68536412 2.66110125 0 0 Z " fill="#E4D2EC" transform="translate(205,178)"/>
<path d="M0 0 C0.33 0.66 0.66 1.32 1 2 C-0.49739583 3.23697917 -1.99479167 4.47395833 -3.4921875 5.7109375 C-4.71051161 6.75250992 -5.86660097 7.86660097 -7 9 C-7.66 7.35 -8.32 5.7 -9 4 C-8.34 4 -7.68 4 -7 4 C-7 3.34 -7 2.68 -7 2 C-4.69 1.34 -2.38 0.68 0 0 Z " fill="#A787B4" transform="translate(266,329)"/>
<path d="M0 0 C1.32 0.66 2.64 1.32 4 2 C3.67 3.32 3.34 4.64 3 6 C2.67 5.67 2.34 5.34 2 5 C-0.33297433 4.95907063 -2.66705225 4.95758277 -5 5 C-3.35 3.35 -1.7 1.7 0 0 Z " fill="#907A97" transform="translate(251,259)"/>
<path d="M0 0 C1.32 0 2.64 0 4 0 C4 2 4 2 2 4.125 C1.34 4.74375 0.68 5.3625 0 6 C1.32 6.33 2.64 6.66 4 7 C1.36 7.33 -1.28 7.66 -4 8 C-4 7.34 -4 6.68 -4 6 C-3.34 6 -2.68 6 -2 6 C-1.855625 5.195625 -1.71125 4.39125 -1.5625 3.5625 C-1 1 -1 1 0 0 Z " fill="#EBD9EF" transform="translate(301,252)"/>
<path d="M0 0 C3.95827235 -0.05785647 7.9164367 -0.09354717 11.875 -0.125 C13.00292969 -0.14175781 14.13085938 -0.15851563 15.29296875 -0.17578125 C16.36933594 -0.18222656 17.44570313 -0.18867188 18.5546875 -0.1953125 C19.54968262 -0.20578613 20.54467773 -0.21625977 21.56982422 -0.22705078 C24 0 24 0 26 2 C24.0625 2.5625 24.0625 2.5625 22 3 C21.67 2.67 21.34 2.34 21 2 C19.44051458 1.84313751 17.87457332 1.74923361 16.30859375 1.68359375 C15.36435547 1.64169922 14.42011719 1.59980469 13.44726562 1.55664062 C12.45404297 1.51732422 11.46082031 1.47800781 10.4375 1.4375 C9.44041016 1.39431641 8.44332031 1.35113281 7.41601562 1.30664062 C4.9441585 1.20019702 2.4721969 1.09818072 0 1 C0 0.67 0 0.34 0 0 Z " fill="#9979A3" transform="translate(281,184)"/>
<path d="M0 0 C2.0625 0.4375 2.0625 0.4375 4 1 C-2.14285714 7.71428571 -2.14285714 7.71428571 -7 8 C-6.02133662 6.85373678 -5.04205413 5.70800212 -4.0625 4.5625 C-3.51722656 3.92441406 -2.97195312 3.28632813 -2.41015625 2.62890625 C-1.63204305 1.73008851 -0.84063472 0.84063472 0 0 Z " fill="#7D548A" transform="translate(230,176)"/>
<path d="M0 0 C2.0625 1.5 2.0625 1.5 4 4 C4.05928384 6.82406647 3.55954815 9.20225927 3 12 C1.09598862 10.09598862 0.06479561 8.66574314 -0.19921875 5.953125 C-0.1886578 3.96766727 -0.09915043 1.9830086 0 0 Z " fill="#92759E" transform="translate(312,190)"/>
<path d="M0 0 C0.99 0.99 1.98 1.98 3 3 C2.72265625 4.734375 2.72265625 4.734375 2 7 C1.77882441 9.4138176 1.59427758 11.83114597 1.4375 14.25 C1.35371094 15.51328125 1.26992187 16.7765625 1.18359375 18.078125 C1.12300781 19.04234375 1.06242188 20.0065625 1 21 C0.67 21 0.34 21 0 21 C0 14.07 0 7.14 0 0 Z " fill="#7A5585" transform="translate(187,280)"/>
<path d="M0 0 C0.99 0.33 1.98 0.66 3 1 C3.33 3.64 3.66 6.28 4 9 C3.01 9 2.02 9 1 9 C-0.4783226 6.04335481 -0.06032783 3.25770263 0 0 Z " fill="#4C1C5F" transform="translate(303,263)"/>
<path d="M0 0 C2.475 0.99 2.475 0.99 5 2 C5.33 1.34 5.66 0.68 6 0 C6 1.98 6 3.96 6 6 C5.67 5.01 5.34 4.02 5 3 C4.34 3 3.68 3 3 3 C3 3.99 3 4.98 3 6 C1.68 5.67 0.36 5.34 -1 5 C-0.67 3.35 -0.34 1.7 0 0 Z " fill="#613870" transform="translate(194,252)"/>
<path d="M0 0 C1.32 0 2.64 0 4 0 C4 0.66 4 1.32 4 2 C3.34 2 2.68 2 2 2 C1.731875 2.639375 1.46375 3.27875 1.1875 3.9375 C0 6 0 6 -3 7 C-4.32 5.68 -5.64 4.36 -7 3 C-4.03 3.495 -4.03 3.495 -1 4 C-0.67 2.68 -0.34 1.36 0 0 Z " fill="#BEABC4" transform="translate(254,338)"/>
<path d="M0 0 C0.33 2.97 0.66 5.94 1 9 C-0.32 9.33 -1.64 9.66 -3 10 C-3 7.03 -3 4.06 -3 1 C-1 0 -1 0 0 0 Z " fill="#4E215D" transform="translate(298,261)"/>
<path d="M0 0 C2.97 0 5.94 0 9 0 C6.61542052 1.58971965 4.3695876 2.86741593 1.8125 4.125 C1.09707031 4.47820312 0.38164062 4.83140625 -0.35546875 5.1953125 C-0.89816406 5.46085937 -1.44085938 5.72640625 -2 6 C-1.34 4.02 -0.68 2.04 0 0 Z " fill="#E1C6E9" transform="translate(280,315)"/>
<path d="M0 0 C1.98 0 3.96 0 6 0 C5.360625 0.70125 4.72125 1.4025 4.0625 2.125 C1.83613898 5.22841233 1.34919057 7.24620139 1 11 C0.67 11 0.34 11 0 11 C0 7.37 0 3.74 0 0 Z " fill="#C0A9C5" transform="translate(317,273)"/>
<path d="M0 0 C0.33 0 0.66 0 1 0 C1.66 2.31 2.32 4.62 3 7 C2.34 7 1.68 7 1 7 C1 7.66 1 8.32 1 9 C1.78375 8.79375 2.5675 8.5875 3.375 8.375 C4.674375 8.189375 4.674375 8.189375 6 8 C6.66 8.66 7.32 9.32 8 10 C5.36 10 2.72 10 0 10 C-0.66 8.68 -1.32 7.36 -2 6 C-1.34 6 -0.68 6 0 6 C0 4.02 0 2.04 0 0 Z " fill="#BCABBD" transform="translate(328,263)"/>
<path d="M0 0 C2.97 0.495 2.97 0.495 6 1 C6 1.99 6 2.98 6 4 C5.34 4.66 4.68 5.32 4 6 C4 5.01 4 4.02 4 3 C2.02 3.33 0.04 3.66 -2 4 C-1.34 2.68 -0.68 1.36 0 0 Z " fill="#D7C4DC" transform="translate(259,258)"/>
<path d="M0 0 C0.33 0 0.66 0 1 0 C1 1.65 1 3.3 1 5 C1.99 5.33 2.98 5.66 4 6 C4 6.33 4 6.66 4 7 C1.03 7 -1.94 7 -5 7 C-4.67 6.01 -4.34 5.02 -4 4 C-2.68 4 -1.36 4 0 4 C0 2.68 0 1.36 0 0 Z " fill="#4B285E" transform="translate(306,251)"/>
<path d="M0 0 C0.33 1.32 0.66 2.64 1 4 C0.195625 4.268125 -0.60875 4.53625 -1.4375 4.8125 C-2.283125 5.204375 -3.12875 5.59625 -4 6 C-4.33 6.99 -4.66 7.98 -5 9 C-5.99 9 -6.98 9 -8 9 C-8 8.34 -8 7.68 -8 7 C-6.25 5.2734375 -6.25 5.2734375 -4 3.375 C-3.2575 2.74335938 -2.515 2.11171875 -1.75 1.4609375 C-1.1725 0.97882813 -0.595 0.49671875 0 0 Z " fill="#B196B7" transform="translate(185,220)"/>
<path d="M0 0 C2.31 0.33 4.62 0.66 7 1 C6.67 1.66 6.34 2.32 6 3 C5.01 3 4.02 3 3 3 C3 3.66 3 4.32 3 5 C1.68 4.34 0.36 3.68 -1 3 C-0.67 2.01 -0.34 1.02 0 0 Z " fill="#A47CB1" transform="translate(178,257)"/>
<path d="M0 0 C5.75 -0.125 5.75 -0.125 8 1 C8 1.99 8 2.98 8 4 C5.03 3.67 2.06 3.34 -1 3 C-0.67 2.01 -0.34 1.02 0 0 Z " fill="#E2D0E6" transform="translate(178,253)"/>
<path d="M0 0 C1.67542976 0.28604898 3.34385343 0.61781233 5 1 C5 2.65 5 4.3 5 6 C4.34 5.67 3.68 5.34 3 5 C0.90178785 5.39938767 0.90178785 5.39938767 -1 6 C-1.042721 4.33388095 -1.04063832 2.66617115 -1 1 C-0.67 0.67 -0.34 0.34 0 0 Z " fill="#AC82B7" transform="translate(331,242)"/>
<path d="M0 0 C0.66 0.33 1.32 0.66 2 1 C1.67 1.99 1.34 2.98 1 4 C0.34 4 -0.32 4 -1 4 C-1.66 5.65 -2.32 7.3 -3 9 C-4.32 9 -5.64 9 -7 9 C-7 7 -7 7 -5.625 5.375 C-4 4 -4 4 -2 4 C-2 3.34 -2 2.68 -2 2 C-1.34 2 -0.68 2 0 2 C0 1.34 0 0.68 0 0 Z " fill="#C1AAC9" transform="translate(242,162)"/>
<path d="M0 0 C0.66 0.33 1.32 0.66 2 1 C-0.475 5.455 -0.475 5.455 -3 10 C-3.66 10 -4.32 10 -5 10 C-4.49701212 5.59885603 -2.91227269 3.28804981 0 0 Z " fill="#AF99B6" transform="translate(192,187)"/>
<path d="M0 0 C5.68701095 1.48356808 5.68701095 1.48356808 7.25 4.0625 C7.4975 4.701875 7.745 5.34125 8 6 C8.66 6.33 9.32 6.66 10 7 C7.25 6.875 7.25 6.875 4 6 C1.625 2.9375 1.625 2.9375 0 0 Z " fill="#936C9E" transform="translate(243,335)"/>
<path d="M0 0 C0 2.31 0 4.62 0 7 C-1.98 5.35 -3.96 3.7 -6 2 C-2.25 0 -2.25 0 0 0 Z " fill="#AA85B5" transform="translate(186,272)"/>
<path d="M0 0 C0 0.66 0 1.32 0 2 C-2.31 2.33 -4.62 2.66 -7 3 C-7.66 2.01 -8.32 1.02 -9 0 C-5.93109813 -1.53445094 -3.29905734 -0.54984289 0 0 Z " fill="#DFCCE3" transform="translate(254,269)"/>
<path d="M0 0 C1.37562854 1.28965176 2.70766393 2.62689293 4 4 C4 4.66 4 5.32 4 6 C3.01 6 2.02 6 1 6 C1 5.01 1 4.02 1 3 C0.01 3 -0.98 3 -2 3 C-2 3.99 -2 4.98 -2 6 C-2.66 5.67 -3.32 5.34 -4 5 C-2.25 1.125 -2.25 1.125 0 0 Z " fill="#4D295D" transform="translate(285,252)"/>
<path d="M0 0 C0.33 0 0.66 0 1 0 C1.33 2.31 1.66 4.62 2 7 C2.99 7.33 3.98 7.66 5 8 C4.67 8.99 4.34 9.98 4 11 C2.68 10.67 1.36 10.34 0 10 C0 6.7 0 3.4 0 0 Z " fill="#EEE0F1" transform="translate(284,261)"/>
<path d="M0 0 C2.912575 0.08566397 4.56798024 0.57910955 6.66796875 2.625 C8.16091772 4.38391375 9.60436262 6.16313019 11 8 C8 8 8 8 6.4375 6.75 C5 5 5 5 4 2.875 C3.08797022 0.6469565 3.08797022 0.6469565 0 0 Z " fill="#795288" transform="translate(269,176)"/>
<path d="M0 0 C0.66 0 1.32 0 2 0 C1.34 2.97 0.68 5.94 0 9 C-0.66 9 -1.32 9 -2 9 C-2.25 3.375 -2.25 3.375 0 0 Z " fill="#806388" transform="translate(176,256)"/>
<path d="M0 0 C1.32 0.33 2.64 0.66 4 1 C1.69 3.31 -0.62 5.62 -3 8 C-3.66 7.67 -4.32 7.34 -5 7 C-4.0409375 6.1028125 -4.0409375 6.1028125 -3.0625 5.1875 C-0.79689611 3.09189663 -0.79689611 3.09189663 0 0 Z " fill="#754E82" transform="translate(276,315)"/>
<path d="M0 0 C1.32 0 2.64 0 4 0 C4 1.65 4 3.3 4 5 C2.68 5.33 1.36 5.66 0 6 C0 4.02 0 2.04 0 0 Z " fill="#4E205E" transform="translate(200,252)"/>
<path d="M0 0 C1.98 0 3.96 0 6 0 C6 0.99 6 1.98 6 3 C4.35 3.33 2.7 3.66 1 4 C0.67 2.68 0.34 1.36 0 0 Z " fill="#9D69A8" transform="translate(233,323)"/>
<path d="M0 0 C0 0.33 0 0.66 0 1 C-1.65 1 -3.3 1 -5 1 C-5 1.99 -5 2.98 -5 4 C-5.99 4.33 -6.98 4.66 -8 5 C-7.625 2.5625 -7.625 2.5625 -7 0 C-4.3333581 -1.33332095 -2.83319697 -0.67102033 0 0 Z " fill="#EAD9ED" transform="translate(264,265)"/>
<path d="M0 0 C1.32 0 2.64 0 4 0 C4 0.66 4 1.32 4 2 C-0.38461538 5 -0.38461538 5 -3 5 C-1.125 1.125 -1.125 1.125 0 0 Z " fill="#DDC8E0" transform="translate(247,258)"/>
<path d="M0 0 C4.95 0 9.9 0 15 0 C15 0.33 15 0.66 15 1 C13.22932584 1.16834933 11.45845388 1.33461909 9.6875 1.5 C8.70136719 1.5928125 7.71523438 1.685625 6.69921875 1.78125 C4 2 4 2 1 2 C0.67 1.34 0.34 0.68 0 0 Z " fill="#CBB6D3" transform="translate(273,176)"/>
<path d="M0 0 C2 2 2 2 2 6 C1.01 6.33 0.02 6.66 -1 7 C-1.66 6.34 -2.32 5.68 -3 5 C-3 3 -3 3 -1.5 1.375 C-1.005 0.92125 -0.51 0.4675 0 0 Z " fill="#81538E" transform="translate(198,306)"/>
<path d="M0 0 C0.33 0 0.66 0 1 0 C1 1.65 1 3.3 1 5 C-1.31 5 -3.62 5 -6 5 C-6 4.34 -6 3.68 -6 3 C-4.02 2.67 -2.04 2.34 0 2 C0 1.34 0 0.68 0 0 Z " fill="#4D2B54" transform="translate(335,267)"/>
<path d="M0 0 C0.45375 0.474375 0.9075 0.94875 1.375 1.4375 C2.93258204 3.09027808 2.93258204 3.09027808 5 4 C5 4.66 5 5.32 5 6 C3.35 6.33 1.7 6.66 0 7 C0 4.69 0 2.38 0 0 Z " fill="#4D255B" transform="translate(234,252)"/>
<path d="M0 0 C1.32 0.33 2.64 0.66 4 1 C3.34 2.65 2.68 4.3 2 6 C1.34 6 0.68 6 0 6 C0 4.02 0 2.04 0 0 Z " fill="#9976A3" transform="translate(307,250)"/>
<path d="M0 0 C0 0.66 0 1.32 0 2 C0.66 2 1.32 2 2 2 C2.33 3.32 2.66 4.64 3 6 C0.11562221 4.70700306 -1.87219421 3.34058637 -4 1 C-2 0 -2 0 0 0 Z " fill="#B297BA" transform="translate(269,170)"/>
<path d="M0 0 C1.32 0.33 2.64 0.66 4 1 C3.01 2.485 3.01 2.485 2 4 C1.34 4 0.68 4 0 4 C0 4.66 0 5.32 0 6 C-0.66 5.67 -1.32 5.34 -2 5 C-1.34 3.35 -0.68 1.7 0 0 Z " fill="#BDA6C3" transform="translate(269,323)"/>
<path d="M0 0 C0.66 0 1.32 0 2 0 C1.67 2.64 1.34 5.28 1 8 C0.34 8 -0.32 8 -1 8 C-1.04241723 5.66705225 -1.04092937 3.33297433 -1 1 C-0.67 0.67 -0.34 0.34 0 0 Z " fill="#422648" transform="translate(327,261)"/>
<path d="M0 0 C2.64 0 5.28 0 8 0 C7.01 0.495 7.01 0.495 6 1 C6 1.66 6 2.32 6 3 C3.5625 2.625 3.5625 2.625 1 2 C0.67 1.34 0.34 0.68 0 0 Z " fill="#42274A" transform="translate(246,266)"/>
<path d="M0 0 C0.99 0 1.98 0 3 0 C3.33 1.65 3.66 3.3 4 5 C3.01 5.495 3.01 5.495 2 6 C1.34 5.67 0.68 5.34 0 5 C0 3.35 0 1.7 0 0 Z " fill="#4F2763" transform="translate(235,263)"/>
</svg>
